<svg width="15" height="14" viewBox="0 0 15 14" fill="none" xmlns="http://www.w3.org/2000/svg">
<path d="M13.0685 4.63139C12.9044 4.46736 12.6819 4.37521 12.4499 4.37521C12.2179 4.37521 11.9954 4.46736 11.8313 4.63139L7.50002 8.96264L3.16877 4.63139C3.00374 4.472 2.78272 4.38381 2.55329 4.3858C2.32387 4.3878 2.10441 4.47982 1.94218 4.64205C1.77994 4.80428 1.68792 5.02374 1.68593 5.25317C1.68394 5.48259 1.77213 5.70362 1.93152 5.86864L6.88139 10.8185C7.04548 10.9826 7.268 11.0747 7.50002 11.0747C7.73204 11.0747 7.95456 10.9826 8.11864 10.8185L13.0685 5.86864C13.2326 5.70456 13.3247 5.48204 13.3247 5.25002C13.3247 5.018 13.2326 4.79548 13.0685 4.63139Z" fill="white"/>
</svg>
