<svg width="29" height="29" viewBox="0 0 29 29" fill="none" xmlns="http://www.w3.org/2000/svg">
<g clip-path="url(#clip0_28_7504)">
<path d="M26.0586 8.5018C26.0602 8.46338 26.0608 8.43729 26.0472 8.40054C26.0201 8.32712 25.9946 8.28415 26.0126 8.20332C26.1446 8.03878 26.3999 7.63018 26.6141 7.58838L26.6492 7.66261L26.6718 7.64568C26.9024 7.92092 27.1851 8.57672 27.3365 8.92505C27.4598 9.20855 27.5913 9.49287 27.6969 9.78333C28.422 11.7791 28.587 13.9593 28.3949 16.0621C28.3033 17.0652 28.0917 17.9917 27.7744 18.946C27.2026 20.6659 26.4423 21.9951 25.2876 23.3923C25.1527 23.5554 25.0251 23.7288 24.8821 23.8845C24.7112 24.0708 24.5194 24.2387 24.3406 24.4174C24.1973 24.5607 24.0666 24.7142 23.91 24.844C23.7144 25.006 23.4914 25.222 23.2684 25.3422C23.2204 25.3469 23.2384 25.3371 23.214 25.358C23.1023 25.4538 22.9759 25.5317 22.8582 25.6201C22.174 26.1335 21.4477 26.5719 20.6947 26.9785C20.4673 27.1012 19.9886 27.3041 19.8095 27.4301C18.6806 27.9693 17.0376 28.3235 15.7888 28.4263C15.2648 28.4694 14.7325 28.4698 14.207 28.4632C11.9904 28.4356 9.94658 27.9291 7.98192 26.9097C7.7022 26.7646 7.13529 26.4846 6.92634 26.2713C6.90189 26.1525 7.00126 25.9842 7.06401 25.8826C7.14572 25.7503 7.2934 25.5355 7.44902 25.4974C7.48397 25.5078 7.5143 25.5176 7.55117 25.5182C7.55861 25.5183 7.56605 25.5176 7.57348 25.5174C8.22734 25.8894 8.87166 26.2548 9.57775 26.5205C12.7202 27.7028 16.4105 27.6729 19.4871 26.2895C22.5976 24.8908 25.2799 22.1631 26.49 18.9687C26.5233 18.8805 26.5558 18.792 26.5873 18.7031C26.6188 18.6143 26.6494 18.5251 26.679 18.4356C26.7087 18.3461 26.7374 18.2562 26.7651 18.1661C26.7928 18.076 26.8196 17.9856 26.8455 17.895C26.8713 17.8043 26.8961 17.7134 26.9201 17.6222C26.944 17.531 26.9669 17.4396 26.9889 17.3479C27.0109 17.2562 27.0319 17.1644 27.052 17.0722C27.072 16.9801 27.0911 16.8878 27.1092 16.7953C27.1273 16.7028 27.1444 16.6101 27.1606 16.5173C27.1767 16.4244 27.1919 16.3314 27.2061 16.2382C27.2203 16.145 27.2335 16.0517 27.2457 15.9583C27.2579 15.8648 27.2692 15.7712 27.2794 15.6775C27.2897 15.5838 27.2989 15.49 27.3072 15.3961C27.3155 15.3023 27.3228 15.2083 27.329 15.1143C27.3353 15.0202 27.3406 14.9261 27.3449 14.832C27.3492 14.7378 27.3525 14.6437 27.3549 14.5495C27.3572 14.4552 27.3585 14.361 27.3588 14.2667C27.3592 14.1725 27.3585 14.0783 27.3569 13.9841C27.3552 13.8898 27.3526 13.7956 27.3489 13.7015C27.3453 13.6073 27.3406 13.5131 27.335 13.4191C27.3294 13.325 27.3228 13.231 27.3152 13.137C27.3076 13.0431 27.299 12.9492 27.2894 12.8555C27.2798 12.7617 27.2692 12.6681 27.2577 12.5745C27.2461 12.481 27.2335 12.3876 27.22 12.2943C27.2065 12.201 27.192 12.1079 27.1765 12.0149C27.161 11.922 27.1445 11.8292 27.1271 11.7365C27.1096 11.6439 27.0912 11.5515 27.0718 11.4592C27.0524 11.367 27.032 11.2749 27.0107 11.1831C26.9893 11.0913 26.967 10.9997 26.9437 10.9084C26.9205 10.817 26.8962 10.7259 26.871 10.635C26.8458 10.5442 26.8197 10.4536 26.7926 10.3634C26.7655 10.2731 26.7374 10.183 26.7084 10.0933C26.5299 9.54887 26.2953 9.02313 26.0586 8.5018Z" fill="url(#paint0_linear_28_7504)"/>
<path d="M0.565566 15.4886C0.550851 15.3004 0.539882 15.1119 0.532661 14.9233C0.525467 14.7347 0.522033 14.5459 0.52236 14.3572C0.522687 14.1683 0.526775 13.9796 0.534623 13.791C0.542499 13.6024 0.554121 13.414 0.56949 13.2258C0.584859 13.0377 0.60399 12.8499 0.62688 12.6625C0.649743 12.4751 0.67634 12.2882 0.70667 12.1019C0.737 11.9155 0.771036 11.7298 0.808778 11.5448C0.846493 11.3598 0.8879 11.1756 0.933 10.9922C0.959733 10.883 0.987815 10.7741 1.01725 10.6656C1.04665 10.5571 1.07737 10.4489 1.10942 10.3411C1.14147 10.2333 1.17484 10.1259 1.20953 10.0189C1.24422 9.91193 1.2802 9.80538 1.31748 9.69927C1.35476 9.59315 1.39334 9.48752 1.43324 9.38236C1.47311 9.27717 1.51426 9.17249 1.55668 9.06833C1.59911 8.96415 1.64281 8.86049 1.68777 8.75736C1.73276 8.65426 1.779 8.55171 1.82647 8.44973C1.87394 8.34771 1.92266 8.24631 1.97264 8.14551C2.02259 8.04469 2.07377 7.94449 2.12617 7.84492C2.1786 7.74535 2.23223 7.64642 2.28706 7.54815C2.34188 7.44988 2.39791 7.35229 2.45514 7.25537C2.51236 7.15846 2.57076 7.06225 2.63033 6.96674C2.6899 6.87124 2.75063 6.77648 2.81252 6.68247C2.8744 6.58843 2.93743 6.49517 3.00161 6.40267C3.06578 6.31018 3.13107 6.21848 3.19748 6.12756C3.26392 6.03664 3.33145 5.94655 3.40007 5.85728C3.46868 5.76802 3.53839 5.67959 3.60919 5.59198C3.67996 5.5044 3.7518 5.41768 3.82473 5.33184C3.89762 5.24602 3.97157 5.16108 4.04656 5.07703C4.12153 4.99297 4.19753 4.90984 4.27457 4.82763C4.35158 4.74542 4.42958 4.66417 4.50858 4.58385C4.58761 4.50354 4.66759 4.42421 4.74852 4.34585C4.82948 4.26747 4.91138 4.19009 4.99423 4.11372C5.07707 4.03731 5.16082 3.96194 5.24549 3.8876C5.33019 3.81323 5.41578 3.73991 5.50227 3.66763C5.58874 3.59535 5.67608 3.52413 5.76429 3.45396C5.85252 3.3838 5.94159 3.31472 6.03149 3.24673C6.12142 3.17874 6.21215 3.11183 6.30369 3.04601C6.39525 2.98022 6.48759 2.91555 6.5807 2.85201C6.67385 2.78844 6.76775 2.72601 6.86242 2.66472C6.95706 2.60342 7.05245 2.5433 7.14859 2.48434C7.21721 2.44294 7.28619 2.40215 7.35555 2.36197C7.4249 2.32181 7.49459 2.28225 7.56463 2.24329C7.63466 2.20433 7.70505 2.16599 7.77579 2.12828C7.84651 2.09057 7.91756 2.05348 7.98896 2.01701C8.06033 1.98055 8.13202 1.94471 8.20405 1.90949C8.27607 1.87427 8.34841 1.83971 8.42106 1.80579C8.49368 1.77185 8.5666 1.73854 8.63983 1.70588C8.71305 1.67324 8.78656 1.64124 8.86035 1.60987C8.93415 1.57851 9.00821 1.54779 9.08255 1.51773C9.15687 1.4877 9.23145 1.4583 9.30631 1.42954C9.38119 1.40081 9.45631 1.37273 9.53166 1.3453C9.60701 1.31787 9.6826 1.2911 9.75844 1.265C9.83425 1.2389 9.91031 1.21348 9.98661 1.18873C10.0629 1.16396 10.1394 1.13987 10.2161 1.11645C10.2928 1.09304 10.3697 1.0703 10.4468 1.04824C10.5239 1.02619 10.6012 1.00481 10.6787 0.984105C10.7562 0.963403 10.8339 0.94338 10.9117 0.924035C10.9896 0.90469 11.0676 0.886037 11.1458 0.868076C11.2239 0.850114 11.3023 0.832831 11.3808 0.816227C11.4592 0.799649 11.5379 0.78375 11.6166 0.768529C11.6954 0.753335 11.7743 0.738833 11.8533 0.725023C11.9323 0.711186 12.0115 0.698054 12.0907 0.685628C12.17 0.673202 12.2493 0.661467 12.3288 0.650424C12.4083 0.639409 12.4878 0.629085 12.5675 0.619453C12.6471 0.609821 12.7268 0.600882 12.8066 0.592634C12.8865 0.584413 12.9663 0.576883 13.0463 0.570046C13.1262 0.563236 13.2062 0.557118 13.2862 0.551692C13.3663 0.546266 13.4464 0.541544 13.5265 0.537529C13.6066 0.533513 13.6868 0.530203 13.767 0.527598C13.8472 0.524994 13.9274 0.523095 14.0076 0.521901C14.0878 0.520707 14.1681 0.520219 14.2483 0.520436C14.3285 0.520653 14.4087 0.521576 14.489 0.523204C14.92 0.53 15.4656 0.516732 15.883 0.615791C16.0764 0.626087 16.8821 0.698081 17.0264 0.779558C18.0663 0.947802 19.0859 1.32576 20.0519 1.73396C20.2493 1.81735 20.5105 1.90835 20.682 2.03292C22.0457 2.62963 24.0317 4.13524 24.9684 5.28923C25.4747 5.7695 26.3718 7.01994 26.6718 7.64566L26.6492 7.66259L26.6141 7.58836C26.3999 7.63016 26.1446 8.03876 26.0127 8.2033C25.9946 8.28413 26.0201 8.32711 26.0472 8.40052C26.0608 8.43727 26.0602 8.46336 26.0586 8.50178C26.2953 9.02312 26.5299 9.54885 26.7085 10.0933C26.7374 10.183 26.7655 10.273 26.7926 10.3633C26.8197 10.4536 26.8458 10.5442 26.8711 10.635C26.8962 10.7259 26.9205 10.817 26.9437 10.9084C26.967 10.9997 26.9893 11.0913 27.0107 11.1831C27.032 11.2749 27.0524 11.3669 27.0718 11.4592C27.0912 11.5514 27.1096 11.6439 27.1271 11.7365C27.1445 11.8291 27.161 11.9219 27.1765 12.0149C27.192 12.1079 27.2065 12.201 27.22 12.2943C27.2336 12.3876 27.2461 12.481 27.2577 12.5745C27.2692 12.668 27.2798 12.7617 27.2894 12.8555C27.299 12.9492 27.3076 13.0431 27.3152 13.137C27.3228 13.231 27.3294 13.325 27.335 13.419C27.3407 13.5131 27.3453 13.6073 27.3489 13.7014C27.3526 13.7956 27.3552 13.8898 27.3569 13.984C27.3585 14.0783 27.3592 14.1725 27.3588 14.2667C27.3585 14.361 27.3572 14.4552 27.3549 14.5495C27.3525 14.6437 27.3492 14.7378 27.3449 14.832C27.3406 14.9261 27.3353 15.0202 27.329 15.1143C27.3227 15.2083 27.3155 15.3023 27.3072 15.3961C27.2989 15.49 27.2897 15.5838 27.2794 15.6775C27.2692 15.7712 27.2579 15.8648 27.2457 15.9582C27.2335 16.0517 27.2203 16.145 27.2061 16.2382C27.1919 16.3314 27.1767 16.4244 27.1606 16.5173C27.1444 16.6101 27.1273 16.7028 27.1092 16.7953C27.0911 16.8878 27.072 16.9801 27.052 17.0722C27.0319 17.1643 27.0109 17.2562 26.9889 17.3479C26.967 17.4395 26.944 17.531 26.9201 17.6222C26.8961 17.7134 26.8713 17.8043 26.8454 17.895C26.8196 17.9856 26.7928 18.076 26.7651 18.1661C26.7374 18.2562 26.7087 18.346 26.679 18.4356C26.6494 18.5251 26.6188 18.6142 26.5873 18.7031C26.5558 18.792 26.5234 18.8805 26.49 18.9687C25.2799 22.1631 22.5976 24.8908 19.4871 26.2895C16.4105 27.6729 12.7202 27.7028 9.57776 26.5204C8.87167 26.2548 8.22735 25.8894 7.5735 25.5174C7.56606 25.5176 7.55862 25.5182 7.55118 25.5182C7.51431 25.5176 7.48398 25.5077 7.44903 25.4974C7.29341 25.5355 7.14573 25.7503 7.06402 25.8826C7.00128 25.9842 6.90191 26.1525 6.92635 26.2712C6.39157 25.9132 5.81129 25.5183 5.35393 25.0656C4.97841 24.8271 4.28728 24.0491 3.97817 23.701C3.79701 23.4854 3.60179 23.2793 3.42958 23.0565C2.62261 22.013 1.86816 20.6692 1.43978 19.4208C1.12414 18.5533 0.816258 17.6248 0.711534 16.7041C0.632153 16.3063 0.599044 15.8925 0.565566 15.4886Z" fill="#E35709"/>
<path d="M3.94283 20.405L3.99846 20.5078C3.91887 20.5999 3.78876 20.6719 3.69781 20.7602L3.5769 20.5231C3.69299 20.4775 3.77756 20.4835 3.9008 20.4907L3.94283 20.405Z" fill="#FFD57A"/>
<path d="M4.32739 7.02821C4.46119 6.85886 4.59275 6.68779 4.72205 6.51501C4.80916 6.58839 4.8943 6.66271 4.99167 6.72261C4.88175 6.84283 4.78516 6.97583 4.68591 7.10485C4.57297 7.09679 4.42619 7.08625 4.32739 7.02821Z" fill="#FFE7B5"/>
<path d="M3.69261 19.9504C3.76537 20.1076 3.85538 20.2556 3.94281 20.405L3.90079 20.4907C3.77755 20.4834 3.69298 20.4774 3.57689 20.5231L3.3432 20.0677C3.45884 20.0172 3.57023 19.9812 3.69261 19.9504Z" fill="#FFE7B5"/>
<path d="M2.2135 16.6868C2.32983 16.6735 2.44298 16.671 2.55992 16.6707C2.60632 16.8722 2.64401 17.0796 2.698 17.2788C2.59001 17.3081 2.47592 17.372 2.37112 17.3939C2.31566 17.1588 2.26312 16.9232 2.2135 16.6868Z" fill="#FFE7B5"/>
<path d="M4.63747 21.4531C4.75989 21.6214 4.87745 21.7994 5.01496 21.9556C4.93803 22.0135 4.8338 22.1446 4.74731 22.1737C4.65182 22.1356 4.40464 21.7366 4.33331 21.6313C4.43244 21.567 4.52886 21.5007 4.63747 21.4531Z" fill="#FFE7B5"/>
<path d="M3.97815 23.701C4.20591 23.772 4.57024 24.3575 4.81852 24.521C4.84975 24.5416 4.87198 24.5683 4.8972 24.5956C4.95942 24.5884 5.01035 24.5186 5.05057 24.4723C5.09275 24.4238 5.13604 24.364 5.18791 24.3257C5.28634 24.2531 5.43881 24.2151 5.51758 24.1206C5.55555 24.075 5.55277 24.0645 5.54946 24.0087C5.48173 23.8953 5.36642 23.8366 5.27236 23.7481C5.15779 23.6404 5.02801 23.516 4.9326 23.3922L4.95259 23.3815C5.14287 23.5382 5.31222 23.7415 5.49742 23.9087C5.71558 24.1058 5.98994 24.2885 6.18304 24.5062C5.99885 24.4427 5.81638 24.2387 5.67421 24.1095C5.43513 24.2695 5.19445 24.473 5.01251 24.6961L5.00912 24.7174C5.09422 24.7932 5.34851 24.9763 5.38816 25.0605L5.35391 25.0656C4.97838 24.8272 4.28725 24.0491 3.97815 23.701Z" fill="#AD430F"/>
<path d="M2.65656 18.4516C2.77743 18.4356 2.8996 18.4019 3.01814 18.3734C3.08489 18.5715 3.14735 18.8315 3.25927 19.0055C3.1364 19.0264 3.03772 19.0834 2.92997 19.1422C2.82251 18.9235 2.74403 18.6795 2.65656 18.4516Z" fill="#FFE7B5"/>
<path d="M2.39196 11.2111C2.53405 11.2154 2.61964 11.2326 2.74505 11.3021C2.66207 11.5029 2.63624 11.749 2.60219 11.9632C2.48487 11.9168 2.3638 11.8918 2.24072 11.8662C2.28438 11.6453 2.33314 11.4285 2.39196 11.2111Z" fill="#FEFEFE"/>
<path d="M2.06291 13.0216C2.17773 13.037 2.29664 13.0475 2.40987 13.0711C2.38583 13.3106 2.3499 13.5668 2.36597 13.807C2.27645 13.7416 2.123 13.7601 2.01648 13.7599C2.02547 13.5127 2.03921 13.2679 2.06291 13.0216Z" fill="#FFD57A"/>
<path d="M2.00629 14.8531C2.12307 14.8524 2.24202 14.8473 2.3586 14.8526C2.36271 15.1002 2.38198 15.3466 2.41639 15.5919C2.29295 15.5903 2.17143 15.5885 2.04839 15.6007C2.02874 15.3518 2.01471 15.1026 2.00629 14.8531Z" fill="#FFE7B5"/>
<path d="M3.03429 10.2903C2.96464 10.2006 2.91044 10.1862 2.80477 10.1675C2.76529 10.1605 2.72948 10.1578 2.70581 10.1242L2.71292 10.0989C2.75016 9.97092 2.90868 9.49647 3.01075 9.43994C3.10709 9.47372 3.20666 9.504 3.299 9.54763L3.06368 10.1769L3.03429 10.2903Z" fill="#FFE7B5"/>
<path d="M26.1776 15.6478L26.3602 15.688C26.4215 15.6921 26.4976 15.6889 26.5536 15.7126C26.5544 15.9842 26.4588 16.2861 26.4201 16.5581C26.3011 16.5345 26.1834 16.5213 26.0628 16.5096C26.117 16.2234 26.1583 15.9384 26.1776 15.6478Z" fill="#050321"/>
<path d="M25.8584 17.3687C25.9807 17.4015 26.1046 17.4402 26.2286 17.4648L26.2406 17.4808C26.1687 17.7451 26.1133 18.0455 26.0093 18.2964C25.8884 18.2475 25.7707 18.2118 25.644 18.181C25.7441 17.9215 25.799 17.6399 25.8584 17.3687Z" fill="#050321"/>
<path d="M12.1754 26.1227C12.4363 26.1553 12.6957 26.1975 12.9534 26.2493C12.9305 26.3803 12.9115 26.509 12.9007 26.6415C12.6368 26.5653 12.346 26.5643 12.0761 26.4959C12.1081 26.3712 12.1412 26.2468 12.1754 26.1227Z" fill="#050321"/>
<path d="M22.9451 22.5865C23.1111 22.3771 23.3051 22.1464 23.4945 21.958C23.5836 22.0536 23.6737 22.1483 23.7579 22.2482C23.5719 22.4583 23.3482 22.6607 23.1806 22.8823C23.1081 22.7752 23.0342 22.6804 22.9451 22.5865Z" fill="#050321"/>
<path d="M10.5244 25.7123C10.7549 25.8431 11.0978 25.8234 11.2841 25.9328C11.2531 26.0558 11.2203 26.1786 11.1948 26.3028L11.1903 26.3072C11.047 26.3373 10.5496 26.1518 10.3901 26.1039L10.5244 25.7123Z" fill="#050321"/>
<path d="M9.0186 25.1038C9.22899 25.22 9.50589 25.3595 9.73675 25.4239C9.67957 25.5436 9.61625 25.6627 9.57726 25.7898L9.56242 25.8029C9.36012 25.7896 9.06136 25.5979 8.87685 25.5076L8.86884 25.4798C8.94188 25.373 8.97712 25.2256 9.0186 25.1038Z" fill="#050321"/>
<path d="M8.27118 24.7206C8.50531 24.8762 8.78944 24.95 9.01863 25.1037C8.97714 25.2256 8.94191 25.373 8.86886 25.4798C8.70115 25.3335 8.3228 25.1848 8.10608 25.0409C8.15055 24.9292 8.21277 24.8256 8.27118 24.7206Z" fill="#FFD57A"/>
<path d="M26.3295 13.8401C26.4069 13.8414 26.4854 13.8457 26.5625 13.839L26.6142 13.8553C26.6847 14.0287 26.6374 14.5276 26.6171 14.7283C26.4921 14.7066 26.3692 14.7042 26.2426 14.7016C26.2604 14.5147 26.2071 13.9768 26.2696 13.8514L26.3295 13.8401Z" fill="#050321"/>
<path d="M24.3925 7.11072C24.4853 7.20847 24.853 7.72293 24.8647 7.8375L24.8244 7.84763C24.7171 7.89167 24.6178 7.93391 24.5205 7.99793C24.4129 7.9123 24.1478 7.47919 24.0651 7.33606L24.083 7.31612C24.1946 7.25613 24.2959 7.19289 24.3925 7.11072Z" fill="#050321"/>
<path d="M26.4182 11.9844C26.4692 12.0433 26.5563 12.6868 26.5554 12.7954C26.5552 12.8187 26.5518 12.8263 26.5457 12.8462L26.5227 12.8588C26.4068 12.8554 26.3008 12.8661 26.1865 12.8822C26.1835 12.8804 26.1802 12.879 26.1777 12.8766C26.1415 12.8429 26.0555 12.1414 26.0505 12.0509L26.4182 11.9844Z" fill="#050321"/>
<path d="M21.7181 23.6971C21.8166 23.5423 22.1573 23.3167 22.3133 23.1934C22.3913 23.2985 22.4718 23.4025 22.5463 23.5101C22.4445 23.6098 22.0212 24.0489 21.9112 24.0789C21.8537 23.9461 21.7912 23.822 21.7181 23.6971Z" fill="#050321"/>
<path d="M24.0237 21.3051C24.1282 21.3655 24.2282 21.43 24.3283 21.4974C24.1985 21.7373 23.9683 22.0785 23.7579 22.2481C23.6737 22.1482 23.5836 22.0535 23.4945 21.958C23.6824 21.7559 23.8471 21.5182 24.0237 21.3051Z" fill="#FFD57A"/>
<path d="M12.9534 26.2494C13.239 26.2803 13.5321 26.304 13.8193 26.3082C13.7964 26.4348 13.8005 26.5631 13.8004 26.6913C13.5415 26.7271 13.1563 26.6945 12.9007 26.6416C12.9115 26.5091 12.9305 26.3804 12.9534 26.2494Z" fill="#FFD57A"/>
<path d="M25.865 11.1988C25.9931 11.1581 26.1265 11.1381 26.2585 11.1143C26.31 11.3228 26.4638 11.7686 26.4312 11.9719L26.4182 11.9844L26.0505 12.0509C25.9834 11.7757 25.9717 11.4608 25.865 11.1988Z" fill="#FFD57A"/>
<path d="M26.0628 16.5095C26.1835 16.5213 26.3011 16.5345 26.4201 16.558C26.4067 16.7394 26.3391 17.3487 26.2286 17.4649C26.1047 17.4402 25.9808 17.4015 25.8585 17.3687C25.9511 17.0945 26.0026 16.7928 26.0628 16.5095Z" fill="#FFD57A"/>
<path d="M11.284 25.9327C11.5648 26.0109 11.8843 26.0965 12.1754 26.1226C12.1412 26.2468 12.1081 26.3712 12.0761 26.4959C11.9063 26.4699 11.2844 26.4045 11.1948 26.3028C11.2203 26.1786 11.2531 26.0557 11.284 25.9327Z" fill="#FFD57A"/>
<path d="M22.9451 22.5864C23.0342 22.6803 23.1081 22.7751 23.1806 22.8823C23.0115 23.1247 22.7717 23.3211 22.5463 23.51C22.4718 23.4025 22.3913 23.2984 22.3133 23.1933C22.5168 22.9842 22.7326 22.7865 22.9451 22.5864Z" fill="#FFD57A"/>
<path d="M9.73677 25.424C9.99073 25.4994 10.2898 25.5917 10.5244 25.7123L10.3901 26.104C10.1422 26.0027 9.79199 25.9428 9.57727 25.7899C9.61627 25.6628 9.67958 25.5437 9.73677 25.424Z" fill="#FFD57A"/>
<path d="M23.8164 6.36047C24.0047 6.61471 24.2136 6.84828 24.3925 7.11082C24.2959 7.19299 24.1946 7.25623 24.083 7.31622C24.0061 7.23889 23.9465 7.14708 23.866 7.07028C23.8246 6.94302 23.6012 6.70649 23.5123 6.59062C23.6213 6.52139 23.7179 6.44362 23.8164 6.36047Z" fill="#FFD57A"/>
<path d="M26.0027 10.2324C26.1225 10.5194 26.1606 10.8229 26.2585 11.1142C26.1264 11.1381 25.993 11.1581 25.865 11.1988C25.7946 11.1332 25.6578 10.5407 25.6229 10.4075C25.7609 10.3627 25.8784 10.3062 26.0027 10.2324Z" fill="#050321"/>
<path d="M24.8244 7.84766C24.9437 7.87924 24.9901 7.97911 25.0486 8.07939C25.1507 8.25439 25.245 8.44673 25.3138 8.63695C25.2447 8.68676 25.1126 8.78244 25.0245 8.77031C24.8774 8.75001 24.8021 8.41759 24.7082 8.30571C24.7037 8.3003 24.6985 8.29549 24.6936 8.29041C24.657 8.18817 24.5897 8.08134 24.5206 7.99795C24.6179 7.93394 24.7171 7.89169 24.8244 7.84766Z" fill="#FFD57A"/>
<path d="M26.2426 14.7015C26.3692 14.7041 26.492 14.7065 26.6171 14.7282C26.6028 14.9411 26.6159 15.505 26.5363 15.6674C26.4753 15.6863 26.4238 15.688 26.3602 15.688L26.1776 15.6478C26.2088 15.3338 26.2187 15.0163 26.2426 14.7015Z" fill="#FFD57A"/>
<path d="M26.1864 12.8823C26.3007 12.8661 26.4067 12.8554 26.5226 12.8588C26.5791 12.9048 26.5726 12.9306 26.5796 13.0031C26.5968 13.1812 26.65 13.6736 26.6023 13.8233L26.5625 13.839C26.4854 13.8457 26.4068 13.8414 26.3295 13.8401L26.2706 13.8209C26.2074 13.6792 26.1962 13.0724 26.1864 12.8823Z" fill="#FFD57A"/>
<path d="M25.644 18.181C25.7707 18.2119 25.8884 18.2476 26.0093 18.2965C25.9306 18.5461 25.808 19.0139 25.6353 19.1968C25.5213 19.1571 25.4206 19.1062 25.3147 19.0491C25.4147 18.7576 25.5376 18.4708 25.644 18.181Z" fill="#FFD57A"/>
<path d="M25.6387 9.37659C25.7581 9.46584 25.9374 10.073 26.0027 10.2324C25.8785 10.3062 25.761 10.3627 25.623 10.4075C25.4859 10.1569 25.4491 9.69399 25.2875 9.49844L25.6387 9.37659Z" fill="#FFD57A"/>
<path d="M21.7181 23.697C21.7913 23.8219 21.8537 23.946 21.9112 24.0788C21.7952 24.2002 21.2906 24.6027 21.1468 24.6429L21.1324 24.6348C21.0917 24.5076 21.0604 24.3761 21.0256 24.2471C21.0787 24.1478 21.5893 23.8206 21.7181 23.697Z" fill="#FFD57A"/>
<path d="M8.31291 24.6644C8.61924 24.8086 8.90856 24.9863 9.21672 25.128C9.50158 25.259 9.79062 25.3606 10.0844 25.4689C10.2877 25.5439 10.4866 25.6336 10.6926 25.7009C11.2019 25.8673 11.9406 26.0306 12.4696 26.1085C12.7894 26.1555 13.1142 26.1848 13.4368 26.2057C13.605 26.2167 13.7851 26.2099 13.9508 26.2363C14.5243 26.2584 15.0948 26.1955 15.667 26.2012L15.6464 26.2361L15.6941 26.626C15.4299 26.6986 14.9354 26.7045 14.6534 26.7005C14.6125 26.6766 14.6248 26.6932 14.6111 26.6553C14.5819 26.6913 14.5938 26.6906 14.5422 26.6967C14.3081 26.7245 14.0386 26.6905 13.8004 26.6912C13.8005 26.563 13.7964 26.4347 13.8193 26.3081C13.5321 26.3039 13.239 26.2802 12.9534 26.2493C12.6957 26.1974 12.4363 26.1552 12.1754 26.1226C11.8843 26.0965 11.5648 26.0109 11.2841 25.9327C11.0978 25.8233 10.7549 25.843 10.5244 25.7122C10.2898 25.5916 9.99075 25.4993 9.73679 25.4238C9.50592 25.3595 9.22902 25.22 9.01864 25.1037C8.78945 24.9499 8.50532 24.8761 8.27118 24.7206L8.31291 24.6644Z" fill="#792F14"/>
<path d="M13.8193 26.3081C13.8302 26.3105 13.841 26.3132 13.852 26.3155C14.091 26.3654 14.3755 26.2733 14.6103 26.3359C14.6288 26.4083 14.6274 26.4743 14.6261 26.5485L14.6111 26.6553C14.5819 26.6913 14.5938 26.6906 14.5422 26.6967C14.308 26.7245 14.0386 26.6905 13.8004 26.6912C13.8005 26.563 13.7964 26.4347 13.8193 26.3081Z" fill="#050321"/>
<path d="M14.6427 26.3115C14.9765 26.2988 15.3157 26.2833 15.6464 26.2361L15.6941 26.626C15.4299 26.6986 14.9354 26.7046 14.6534 26.7005C14.6125 26.6767 14.6248 26.6932 14.6111 26.6554L14.6261 26.5486C14.6428 26.4723 14.6401 26.3895 14.6427 26.3115Z" fill="#FFD57A"/>
<path d="M5.67425 24.1094C5.81641 24.2386 5.99888 24.4426 6.18307 24.5061C6.56849 24.7924 6.93519 25.0879 7.33663 25.3533C7.39398 25.3913 7.54183 25.4647 7.57351 25.5173C7.56607 25.5176 7.55863 25.5182 7.55119 25.5181C7.51432 25.5176 7.48399 25.5077 7.44904 25.4973C7.29342 25.5355 7.14574 25.7502 7.06403 25.8825C7.00128 25.9842 6.90191 26.1525 6.92636 26.2712C6.39158 25.9131 5.8113 25.5182 5.35394 25.0655L5.3882 25.0604C5.34855 24.9762 5.09426 24.7931 5.00916 24.7173L5.01255 24.696C5.19449 24.4729 5.43517 24.2694 5.67425 24.1094Z" fill="#792F14"/>
<path d="M24.9683 5.28918C25.4747 5.76946 26.3717 7.01989 26.6718 7.64562L26.6492 7.66255L26.6141 7.58832C26.3999 7.63011 26.1446 8.03872 26.0126 8.20326C25.9946 8.28409 26.02 8.32706 26.0472 8.40048C26.0608 8.43723 26.0602 8.46332 26.0586 8.50174C25.9191 8.24575 25.7997 7.97963 25.6553 7.72616C25.398 7.27462 25.0878 6.84888 24.7707 6.43771C24.7093 6.35811 24.3588 5.95496 24.361 5.89652C24.4124 5.92106 24.4602 5.97111 24.4845 6.02219C24.5035 6.06199 24.5234 6.09109 24.5503 6.12617L24.5901 6.1291L24.6632 6.06102C24.8747 5.85993 24.9949 5.87458 25.1975 5.73397C25.2367 5.70674 25.2404 5.69978 25.2476 5.65575C25.165 5.57806 24.9801 5.40228 24.9683 5.28918Z" fill="#792F14"/>
<path d="M15.883 0.615845C16.0764 0.626141 16.8821 0.698136 17.0264 0.779612C18.0663 0.947856 19.0859 1.32582 20.0519 1.73401C20.2493 1.8174 20.5105 1.9084 20.682 2.03298L20.6594 2.04734C20.5352 2.02948 19.9793 1.74516 19.8245 1.67704C19.6188 1.58864 19.4113 1.50471 19.2021 1.42524C19.1985 1.43179 19.1964 1.43932 19.1915 1.44498C19.1876 1.44954 19.1804 1.45043 19.1765 1.45499C19.0288 1.62873 18.7372 1.81101 18.5035 1.84345C18.3892 1.85936 18.2328 1.8544 18.1316 1.90869C18.1404 1.91695 19.4456 2.41944 19.5442 2.44024L19.572 2.4459L19.554 2.47072L19.5611 2.44337L19.5908 2.46987C19.5622 2.47768 19.5752 2.47654 19.5352 2.47084C19.3629 2.4463 19.1531 2.32226 18.9873 2.25673C18.7432 2.16024 18.4826 2.06684 18.2312 1.98955C17.2287 1.68139 16.2008 1.54969 15.1589 1.46504C15.0073 1.44962 14.851 1.44917 14.6985 1.43912C14.7487 1.39862 14.7969 1.37359 14.8563 1.34808L14.8874 1.33497C15.0619 1.26025 15.264 1.28752 15.4312 1.20767C15.4533 1.19347 15.4431 1.19786 15.4698 1.18993C15.6774 1.12782 16.1907 0.949118 16.3092 0.771228C16.3301 0.73981 16.3243 0.75385 16.3153 0.711321C16.1902 0.644333 16.0334 0.682019 15.8991 0.623496C15.8937 0.621095 15.8884 0.618409 15.883 0.615845Z" fill="url(#paint1_linear_28_7504)"/>
<path d="M15.883 0.615845C16.0764 0.626141 16.8821 0.698136 17.0264 0.779612C17.0353 0.785758 17.044 0.792188 17.053 0.798089C17.0875 0.820595 17.1184 0.832804 17.1569 0.846315C17.1313 0.922217 17.0695 0.950136 17.0002 0.984769C16.5007 1.23453 16.0279 1.31466 15.4888 1.42386C15.375 1.44693 15.2663 1.42337 15.1589 1.46504C15.0073 1.44962 14.851 1.44917 14.6985 1.43912C14.7487 1.39862 14.7969 1.37359 14.8563 1.34808L14.8874 1.33497C15.0619 1.26025 15.264 1.28752 15.4312 1.20767C15.4533 1.19347 15.4431 1.19786 15.4698 1.18993C15.6774 1.12782 16.1907 0.949118 16.3092 0.771228C16.3301 0.73981 16.3243 0.75385 16.3153 0.711321C16.1902 0.644333 16.0334 0.682019 15.8991 0.623496C15.8937 0.621095 15.8884 0.618409 15.883 0.615845Z" fill="#FEBDA3"/>
<path d="M0.71156 16.7041C0.714136 16.6919 0.717078 16.6798 0.719286 16.6676C0.74888 16.5029 0.637575 16.324 0.668967 16.1623C0.895093 16.0803 1.2855 16.1116 1.52585 16.132L1.54743 16.1495C1.56014 16.2916 1.56807 16.4354 1.60122 16.5745C1.62035 16.6546 1.61606 16.7524 1.65489 16.8242L1.67031 16.8167C1.73497 16.9968 1.76358 17.2019 1.80315 17.3894C1.86422 17.6788 1.93015 17.9609 2.01673 18.244C2.07216 18.4252 2.43554 19.3588 2.42949 19.4428L2.42336 19.425C2.40256 19.3658 2.3777 19.3152 2.34541 19.2616L2.31467 19.2478C2.30948 19.2503 2.30433 19.2529 2.2991 19.2552C2.06721 19.3596 1.57466 19.252 1.4347 19.3218L1.44524 19.345C1.4553 19.3677 1.46392 19.3898 1.47193 19.4132L1.43981 19.4208C1.12416 18.5533 0.816285 17.6247 0.71156 16.7041Z" fill="#FE9C77"/>
<path d="M14.7508 2.0427C14.956 1.99777 15.3731 2.01974 15.5737 2.08152C15.5963 2.12385 15.5913 2.10313 15.5941 2.14224L15.6177 2.0976C15.7247 2.07892 16.3527 2.1512 16.4346 2.20268C16.447 2.21049 16.4492 2.2146 16.4571 2.22462L16.4747 2.19556C16.6618 2.16573 17.1486 2.29922 17.3415 2.36038C17.5916 2.43763 17.8702 2.54666 18.1288 2.58304C18.3909 2.64401 18.7506 2.73509 18.9764 2.88046C19.2322 2.98744 19.4868 3.09707 19.7402 3.20934C20.0074 3.29151 20.2982 3.46219 20.5312 3.61758C20.7569 3.77394 20.9872 3.93734 21.2271 4.07115C21.5005 4.22116 21.7192 4.43483 21.9808 4.59379C22.1807 4.74897 22.3747 4.93056 22.5829 5.07223C22.828 5.26534 23.0455 5.47563 23.2485 5.71253C23.4489 5.92066 23.6391 6.132 23.8164 6.36048C23.7179 6.44362 23.6213 6.52139 23.5123 6.59062C23.6012 6.70649 23.8246 6.94302 23.866 7.07028C23.7446 7.02027 23.571 6.70596 23.4726 6.59245C23.1054 6.16895 22.6877 5.77301 22.2675 5.40205C21.2375 4.4927 20.0188 3.73405 18.7273 3.25528C17.9296 2.97207 17.1343 2.71885 16.2951 2.58683C15.7579 2.50234 15.2162 2.47128 14.6751 2.42281C14.405 2.42261 14.1153 2.4616 13.8481 2.43185C13.8425 2.43287 13.8368 2.43397 13.8312 2.4349C13.6658 2.46274 13.4906 2.46156 13.323 2.47352C12.9626 2.49928 12.5992 2.52712 12.2434 2.59216C9.80249 3.03853 7.4809 4.18067 5.73116 5.94467C5.51342 6.16419 5.29853 6.39759 5.10711 6.64015C4.93989 6.85202 4.78235 7.08644 4.59698 7.28199C4.44697 7.51344 4.29143 7.74412 4.15315 7.98269C4.00559 8.23725 3.87544 8.50512 3.71651 8.75252C3.48189 9.23609 3.29492 9.71645 3.09377 10.2131C2.85755 10.881 2.7059 11.5934 2.57534 12.289C2.53189 12.5205 2.51166 12.7626 2.45893 12.9913C2.43097 13.3422 2.38453 13.6988 2.37648 14.0505C2.3708 14.2992 2.40309 14.5666 2.37304 14.8118C2.43849 15.0013 2.42569 15.3893 2.45087 15.6082C2.48554 15.91 2.58351 16.3161 2.57988 16.6093C2.70737 17.1665 2.86229 17.7111 3.02048 18.2601C3.3051 19.0598 3.63464 19.7268 4.02782 20.4738C4.21859 20.788 4.44038 21.0794 4.63724 21.3886C4.973 21.8285 5.31014 22.2792 5.70394 22.6704C5.96919 22.9339 6.24865 23.1863 6.52951 23.4331C6.65394 23.5424 6.79316 23.6465 6.9115 23.7613C7.32815 24.0445 7.85867 24.4647 8.31289 24.6645L8.27115 24.7207C8.21274 24.8257 8.15053 24.9292 8.10605 25.041L8.10017 25.0498L8.06493 25.052C7.92146 24.9693 7.05387 24.4381 7.02342 24.3437C6.95744 24.2664 6.86122 24.2046 6.78082 24.1421L6.71586 24.1151C6.5047 24.0305 6.02915 23.5515 5.85224 23.3823L5.86524 23.3622C5.73664 23.2329 5.60561 23.1061 5.47213 22.9819C5.38339 22.9533 4.88467 22.3612 4.77929 22.2436C4.84592 22.1882 5.00329 22.0804 5.03141 22.006C5.04106 21.9805 5.03231 21.9835 5.01494 21.9556C4.87743 21.7994 4.75987 21.6214 4.63745 21.4531L4.62081 21.3976C4.58038 21.3607 4.57188 21.3472 4.51883 21.3375C4.40405 21.3766 4.31853 21.4623 4.22742 21.5394C4.04994 21.3078 3.89804 21.0644 3.75109 20.813C3.8223 20.7567 3.90205 20.6996 3.96422 20.6334C4.00857 20.5862 4.01605 20.5666 4.01389 20.5029L3.99844 20.5078L3.9428 20.405C3.85537 20.2557 3.76536 20.1077 3.6926 19.9505C3.66554 19.9045 3.66505 19.899 3.61653 19.878C3.50568 19.8894 3.40549 19.9491 3.30612 19.9968C3.18169 19.7321 3.04672 19.4664 2.94764 19.1912C3.04782 19.1548 3.18419 19.1217 3.26148 19.0474L3.25928 19.0056C3.14736 18.8316 3.0849 18.5716 3.01815 18.3735L2.99522 18.2704C2.87095 18.2569 2.72854 18.3087 2.61021 18.3446C2.59615 18.1652 2.36413 17.6167 2.4221 17.4845C2.38351 17.4547 2.38621 17.4387 2.37112 17.394C2.47593 17.3721 2.59001 17.3082 2.69801 17.2788C2.64401 17.0797 2.60632 16.8723 2.55993 16.6707L2.56925 16.6156C2.54763 16.5842 2.54374 16.5813 2.51178 16.5647C2.40399 16.5635 2.30294 16.6042 2.20128 16.6366C2.16376 16.3951 2.05458 15.9424 2.08544 15.7097L2.26812 15.684C2.33094 15.68 2.36757 15.688 2.41764 15.6484L2.41637 15.592C2.38196 15.3467 2.36269 15.1003 2.35857 14.8527L2.36834 14.8076L2.33523 14.7635C2.22618 14.7364 2.10903 14.7518 1.99756 14.7573C2.00061 14.4495 2.00617 14.1417 2.01424 13.834C2.06143 13.8385 2.10869 13.8424 2.15599 13.8459C2.23591 13.8514 2.3045 13.8607 2.36597 13.8071C2.34991 13.5669 2.38584 13.3107 2.40987 13.0711L2.43276 12.9655L2.40763 12.9348C2.32751 12.8993 2.23652 12.9062 2.15011 12.9041L2.11712 12.8937C2.06186 12.7989 2.19262 12.1155 2.21661 11.9685C2.32923 11.9877 2.47168 12.0203 2.58396 11.9943L2.6022 11.9633C2.63625 11.7491 2.66208 11.503 2.74506 11.3022C2.75004 11.2499 2.75695 11.2414 2.72838 11.1983C2.63175 11.1446 2.51304 11.1429 2.40456 11.1302C2.47438 10.8186 2.56185 10.512 2.66698 10.2104C2.77571 10.2506 2.88334 10.2952 2.99763 10.3169L3.03425 10.2904L3.06364 10.177L3.29897 9.54771C3.20663 9.50409 3.10705 9.47381 3.01071 9.44003L3.00094 9.4305C2.9776 9.32876 3.2677 8.74809 3.33759 8.63491C3.43353 8.67687 3.5309 8.71296 3.62916 8.74886C3.62536 8.74145 3.62197 8.73388 3.61776 8.72672C3.58179 8.66555 3.55358 8.64463 3.48638 8.62705C3.44624 8.61659 3.42237 8.61118 3.38947 8.58391C3.44342 8.36309 3.59593 8.12704 3.70192 7.92494C3.81065 7.69479 4.0602 7.32395 4.24148 7.1457C4.25894 7.10264 4.2981 7.06451 4.3274 7.02828C4.4262 7.08632 4.57299 7.09686 4.68593 7.10492C4.78517 6.97591 4.88176 6.84291 4.99168 6.72269C4.99899 6.68785 4.999 6.70274 4.99319 6.66559C4.97913 6.57593 4.85127 6.49983 4.78174 6.44879C4.98225 6.21749 5.18425 5.98748 5.38773 5.75876C5.40044 5.72392 5.39696 5.72527 5.41401 5.70032C5.50365 5.56887 5.86683 5.1802 6.01726 5.14801C6.24984 4.98526 6.44694 4.78124 6.67466 4.61259C6.89362 4.43097 7.1219 4.26179 7.3595 4.10505C7.48928 4.02773 7.99585 3.69303 8.10426 3.69409C8.25423 3.50293 8.59857 3.37009 8.81276 3.27047C9.06864 3.17198 9.32031 3.04003 9.56949 2.92478C9.76198 2.81787 10.2272 2.63005 10.4421 2.62109C10.7218 2.56969 10.9973 2.43352 11.28 2.40942C11.3738 2.32066 11.8728 2.2328 12.0264 2.22034C12.0755 2.21635 12.0784 2.21045 12.1167 2.24456C12.182 2.17802 12.8058 2.11323 12.9424 2.09333C13.1042 2.02674 13.6474 2.00644 13.8228 2.03615C13.8545 2.06484 13.849 2.0628 13.858 2.10098L13.8675 2.06406C13.9519 2.00456 14.5773 2.02202 14.7108 2.04013L14.7508 2.0427Z" fill="#050321"/>
<path d="M2.69804 17.2788C2.71063 17.3424 2.72669 17.3614 2.69134 17.4178C2.60582 17.4612 2.51459 17.4646 2.42213 17.4845C2.38354 17.4547 2.38624 17.4387 2.37115 17.3939C2.47596 17.3721 2.59005 17.3082 2.69804 17.2788Z" fill="#FF9F31"/>
<path d="M6.90571 23.7773L7.07343 23.9192C6.94512 23.9554 6.85515 24.0321 6.78084 24.142L6.71588 24.1151C6.71274 24.0884 6.71082 24.0852 6.71629 24.0545C6.73362 23.9579 6.82118 23.8272 6.90571 23.7773Z" fill="#FF9F31"/>
<path d="M4.32744 7.0282C4.42624 7.08623 4.57302 7.09677 4.68596 7.10483C4.65285 7.15404 4.61365 7.2045 4.58622 7.25676C4.54445 7.30502 4.54249 7.31959 4.47737 7.33058C4.38242 7.29864 4.31239 7.21378 4.24152 7.14561C4.25897 7.10255 4.29813 7.06442 4.32744 7.0282Z" fill="#FFD57A"/>
<path d="M3.70192 7.92493C3.81224 7.96481 3.92474 8.00103 4.02889 8.05528C3.94853 8.30195 3.78768 8.51309 3.68888 8.75186L3.62916 8.74885C3.62536 8.74144 3.62197 8.73387 3.61776 8.72671C3.58179 8.66554 3.55358 8.64462 3.48638 8.62704C3.44624 8.61658 3.42237 8.61117 3.38947 8.5839C3.44342 8.36308 3.59593 8.12703 3.70192 7.92493Z" fill="#FFE7B5"/>
<path d="M7.07341 23.9192C7.17895 24.0015 7.5524 24.2201 7.57525 24.3433C7.59319 24.4398 7.51753 24.5187 7.46198 24.5887L7.44497 24.61C7.31863 24.54 7.14245 24.3847 7.02342 24.3437C6.95745 24.2663 6.86123 24.2046 6.78082 24.1421C6.85514 24.0321 6.9451 23.9554 7.07341 23.9192Z" fill="#FFD57A"/>
<path d="M8.10425 3.69401C8.25422 3.50285 8.59856 3.37001 8.81275 3.27039C8.86197 3.38353 8.91318 3.49577 8.9532 3.61249C8.71489 3.72925 8.48517 3.87234 8.24462 3.98166L8.10425 3.69401Z" fill="#FFD57A"/>
<path d="M5.65435 22.6757C5.86031 22.8763 6.06812 23.0751 6.27779 23.2719C6.2047 23.373 6.13472 23.4468 6.03405 23.5217L5.86523 23.3622C5.73663 23.2329 5.6056 23.1061 5.47213 22.9818C5.45696 22.9546 5.42238 22.9132 5.43194 22.8827C5.45766 22.8003 5.59181 22.7369 5.65435 22.6757Z" fill="#FFE7B5"/>
<path d="M6.67468 4.61252C6.89364 4.4309 7.12192 4.26172 7.35952 4.10498C7.42471 4.20738 7.48791 4.30904 7.54497 4.41628C7.32244 4.57821 7.1022 4.74625 6.87453 4.90078C6.80884 4.80445 6.74532 4.70531 6.67468 4.61252Z" fill="#FFD57A"/>
<path d="M5.38776 5.7587C5.40047 5.72386 5.39699 5.72521 5.41404 5.70026C5.50368 5.5688 5.86686 5.18014 6.01729 5.14795C6.07835 5.23822 6.14425 5.32771 6.19812 5.42241C6.02301 5.62094 5.82509 5.79887 5.6326 5.98046C5.55061 5.90745 5.4655 5.83619 5.38776 5.7587Z" fill="#FFD57A"/>
<path d="M11.28 2.40934C11.3738 2.32058 11.8728 2.23271 12.0264 2.22026C12.0756 2.21627 12.0785 2.21037 12.1167 2.24447C12.1297 2.34992 12.1468 2.45647 12.1524 2.56253C11.8855 2.63623 11.6107 2.68645 11.3395 2.74269C11.3154 2.63151 11.2937 2.5224 11.28 2.40934Z" fill="#FFD57A"/>
<path d="M14.7508 2.0427C14.956 1.99777 15.3731 2.01974 15.5737 2.08152C15.5963 2.12385 15.5913 2.10313 15.5941 2.14224L15.5575 2.45765C15.2956 2.43006 15.0237 2.42953 14.7648 2.38798L14.6963 2.39709C14.6584 2.29287 14.6972 2.14819 14.7108 2.04013L14.7508 2.0427Z" fill="#FFD57A"/>
<path d="M9.56952 2.92478C9.762 2.81787 10.2272 2.63005 10.4421 2.62109C10.4655 2.7414 10.4922 2.86141 10.5023 2.98367C10.2332 3.06743 9.97006 3.16913 9.70609 3.26774L9.56952 2.92478Z" fill="#FFD57A"/>
<path d="M12.9424 2.09322C13.1042 2.02664 13.6474 2.00633 13.8228 2.03604C13.8545 2.06473 13.8491 2.0627 13.858 2.10087C13.8652 2.20257 13.8833 2.31592 13.8543 2.4151C13.5636 2.40997 13.2651 2.42873 12.9756 2.45632C12.9595 2.33513 12.9495 2.21523 12.9424 2.09322Z" fill="#FFD57A"/>
<path d="M16.4571 2.22451L16.4747 2.19545C16.6618 2.16562 17.1486 2.29911 17.3415 2.36027L17.2671 2.7412C16.9773 2.67707 16.6864 2.61812 16.3945 2.56437L16.4571 2.22451Z" fill="#FFD57A"/>
<path d="M21.2271 4.07104C21.5005 4.22106 21.7192 4.43472 21.9808 4.59368C21.9068 4.70357 21.8214 4.79709 21.7287 4.89143C21.4853 4.72443 21.2449 4.5532 21.0076 4.37774C21.0886 4.28153 21.1565 4.17491 21.2271 4.07104Z" fill="#FFD57A"/>
<path d="M19.7402 3.20923C20.0074 3.2914 20.2982 3.46208 20.5312 3.61747C20.4795 3.73879 20.4131 3.85559 20.352 3.97255C20.0951 3.84026 19.8393 3.70589 19.5846 3.56944L19.7402 3.20923Z" fill="#FFD57A"/>
<path d="M18.1288 2.58301C18.3909 2.64397 18.7506 2.73505 18.9764 2.88043C18.9506 2.99031 18.9357 3.11981 18.8677 3.21183C18.8056 3.24373 18.7955 3.22929 18.7306 3.2102C18.488 3.12571 18.2426 3.04615 18.0084 2.94021C18.0425 2.81865 18.0851 2.70136 18.1288 2.58301Z" fill="#FFD57A"/>
<path d="M22.5829 5.07214C22.828 5.26525 23.0455 5.47554 23.2484 5.71244C23.1617 5.81659 23.0649 5.90518 22.9644 5.99586C22.747 5.80503 22.5427 5.59401 22.334 5.39345C22.4214 5.28878 22.5044 5.18353 22.5829 5.07214Z" fill="#FFD57A"/>
<path d="M0.565566 15.4886C0.550851 15.3004 0.539882 15.112 0.532661 14.9233C0.525467 14.7347 0.522033 14.5459 0.52236 14.3572C0.522687 14.1683 0.526775 13.9796 0.534623 13.791C0.542499 13.6024 0.554121 13.414 0.56949 13.2258C0.584859 13.0377 0.60399 12.8499 0.62688 12.6625C0.649743 12.4751 0.67634 12.2882 0.70667 12.1019C0.737 11.9155 0.771036 11.7298 0.808778 11.5448C0.846493 11.3598 0.8879 11.1756 0.933 10.9922C0.959733 10.883 0.987815 10.7741 1.01725 10.6656C1.04665 10.5571 1.07737 10.4489 1.10942 10.3411C1.14147 10.2333 1.17484 10.1259 1.20953 10.0189C1.24422 9.91193 1.2802 9.80538 1.31748 9.69927C1.35476 9.59316 1.39334 9.48752 1.43324 9.38236C1.47311 9.27717 1.51426 9.17249 1.55668 9.06833C1.59911 8.96415 1.64281 8.86049 1.68777 8.75736C1.73276 8.65426 1.779 8.55172 1.82647 8.44973C1.87394 8.34771 1.92266 8.24631 1.97264 8.14551C2.02259 8.04469 2.07377 7.94449 2.12617 7.84492C2.1786 7.74535 2.23223 7.64642 2.28706 7.54815C2.34188 7.44988 2.39791 7.35229 2.45514 7.25537C2.51236 7.15846 2.57076 7.06225 2.63033 6.96674C2.6899 6.87124 2.75063 6.77648 2.81252 6.68247C2.8744 6.58843 2.93743 6.49517 3.00161 6.40267C3.06578 6.31018 3.13107 6.21848 3.19748 6.12756C3.26392 6.03664 3.33145 5.94655 3.40007 5.85729C3.46868 5.76802 3.53839 5.67959 3.60919 5.59198C3.67996 5.5044 3.7518 5.41768 3.82473 5.33184C3.89762 5.24602 3.97157 5.16108 4.04656 5.07703C4.12153 4.99297 4.19753 4.90984 4.27457 4.82763C4.35158 4.74542 4.42958 4.66417 4.50858 4.58386C4.58761 4.50355 4.66759 4.42421 4.74852 4.34585C4.82948 4.26747 4.91138 4.19009 4.99423 4.11372C5.07707 4.03731 5.16082 3.96194 5.24549 3.8876C5.33019 3.81323 5.41578 3.73991 5.50227 3.66763C5.58874 3.59535 5.67608 3.52413 5.76429 3.45396C5.85252 3.3838 5.94159 3.31472 6.03149 3.24673C6.12142 3.17874 6.21215 3.11183 6.30369 3.04601C6.39525 2.98022 6.48759 2.91555 6.5807 2.85201C6.67385 2.78844 6.76775 2.72601 6.86242 2.66472C6.95706 2.60342 7.05245 2.5433 7.14859 2.48434C7.21721 2.44294 7.28619 2.40215 7.35555 2.36197C7.4249 2.32181 7.49459 2.28225 7.56463 2.24329C7.63466 2.20433 7.70505 2.16599 7.77579 2.12828C7.84651 2.09057 7.91756 2.05348 7.98896 2.01701C8.06033 1.98055 8.13202 1.94471 8.20405 1.90949C8.27607 1.87427 8.34841 1.83971 8.42106 1.80579C8.49368 1.77185 8.5666 1.73854 8.63983 1.70588C8.71305 1.67324 8.78656 1.64124 8.86035 1.60987C8.93415 1.57851 9.00821 1.54779 9.08255 1.51773C9.15687 1.4877 9.23145 1.4583 9.30631 1.42954C9.38119 1.40081 9.45631 1.37273 9.53166 1.3453C9.60701 1.31787 9.6826 1.2911 9.75844 1.265C9.83425 1.2389 9.91031 1.21348 9.98661 1.18873C10.0629 1.16396 10.1394 1.13987 10.2161 1.11645C10.2928 1.09304 10.3697 1.0703 10.4468 1.04824C10.5239 1.02619 10.6012 1.00481 10.6787 0.984105C10.7562 0.963403 10.8339 0.94338 10.9117 0.924035C10.9896 0.90469 11.0676 0.886037 11.1458 0.868076C11.2239 0.850114 11.3023 0.832831 11.3808 0.816227C11.4592 0.799649 11.5379 0.78375 11.6166 0.768529C11.6954 0.753335 11.7743 0.738833 11.8533 0.725023C11.9323 0.711186 12.0115 0.698054 12.0907 0.685628C12.17 0.673202 12.2493 0.661467 12.3288 0.650424C12.4083 0.639409 12.4878 0.629085 12.5675 0.619453C12.6471 0.609821 12.7268 0.600882 12.8066 0.592634C12.8865 0.584413 12.9663 0.576883 13.0463 0.570046C13.1262 0.563236 13.2062 0.557118 13.2862 0.551692C13.3663 0.546266 13.4464 0.541544 13.5265 0.537529C13.6066 0.533513 13.6868 0.530203 13.767 0.527598C13.8472 0.524994 13.9274 0.523095 14.0076 0.521901C14.0878 0.520707 14.1681 0.520219 14.2483 0.520436C14.3285 0.520653 14.4087 0.521576 14.489 0.523204C14.92 0.53 15.4656 0.516732 15.883 0.615791C15.8884 0.618355 15.8937 0.621041 15.8991 0.623442C16.0334 0.681965 16.1902 0.644279 16.3153 0.711267C16.3243 0.753796 16.3301 0.739755 16.3092 0.771174C16.1907 0.949064 15.6774 1.12777 15.4697 1.18987C15.4431 1.19781 15.4533 1.19341 15.4312 1.20762C15.264 1.28746 15.0619 1.2602 14.8874 1.33492L14.8563 1.34802C14.7969 1.37354 14.7487 1.39857 14.6985 1.43906C14.28 1.43642 13.866 1.4461 13.4484 1.47349C13.2539 1.48648 13.0416 1.52046 12.8476 1.51562C10.0288 1.90355 7.3683 3.09701 5.34817 5.11997C4.87548 5.59332 4.46149 6.10595 4.0576 6.6373C4.01184 6.69742 3.96662 6.75795 3.92193 6.81889C3.87726 6.8798 3.83315 6.94112 3.78957 7.00284C3.746 7.06454 3.70298 7.12663 3.66053 7.18912C3.61807 7.2516 3.57617 7.31445 3.53483 7.37767C3.49352 7.44089 3.45277 7.50447 3.41257 7.56842C3.37238 7.63237 3.33276 7.69667 3.29371 7.76133C3.25468 7.82598 3.21623 7.89098 3.17835 7.95631C3.1405 8.02164 3.10322 8.08732 3.06652 8.15333C3.02984 8.21931 2.99375 8.28563 2.95824 8.3523C2.92273 8.41893 2.88784 8.48588 2.85355 8.55314C2.81925 8.6204 2.78555 8.68796 2.75247 8.75581C2.71936 8.82367 2.68688 8.89183 2.65502 8.96028C2.62316 9.02871 2.59192 9.09742 2.56129 9.16641C2.53066 9.23541 2.50065 9.30468 2.47124 9.37422C2.44187 9.44376 2.4131 9.51354 2.38495 9.58357C2.35683 9.65362 2.32932 9.7239 2.30242 9.79442C2.27556 9.86496 2.24933 9.93574 2.22374 10.0067C2.19812 10.0777 2.17315 10.1489 2.14881 10.2204C2.12451 10.2918 2.10082 10.3635 2.07777 10.4353C2.05472 10.5072 2.03232 10.5793 2.01057 10.6515C1.98882 10.7238 1.96773 10.7962 1.94729 10.8689C1.92683 10.9415 1.90703 11.0143 1.8879 11.0873C1.86874 11.1603 1.85026 11.2334 1.83243 11.3067C1.81461 11.3801 1.79744 11.4535 1.78093 11.5272C1.76442 11.6008 1.74857 11.6746 1.73339 11.7484C1.71819 11.8223 1.70366 11.8964 1.68982 11.9706C1.67595 12.0447 1.66276 12.119 1.65025 12.1934C1.63771 12.2678 1.62585 12.3423 1.61465 12.4169C1.60347 12.4915 1.59295 12.5662 1.58309 12.641C1.57325 12.7158 1.56408 12.7907 1.55558 12.8656C1.54708 12.9406 1.53924 13.0156 1.53208 13.0907C1.52491 13.1658 1.51842 13.241 1.51262 13.3162C1.47899 13.7241 1.46244 14.1327 1.46296 14.542C1.46475 14.7781 1.48413 15.0152 1.48262 15.2508C1.54961 15.7732 1.58902 16.2944 1.67028 16.8167L1.65487 16.8242C1.61604 16.7524 1.62033 16.6547 1.6012 16.5745C1.56805 16.4354 1.56012 16.2916 1.54741 16.1495L1.52582 16.132C1.28547 16.1117 0.895067 16.0803 0.668941 16.1623C0.637548 16.324 0.748854 16.5029 0.71926 16.6676C0.717052 16.6799 0.714109 16.6919 0.711534 16.7041C0.632153 16.3063 0.599044 15.8925 0.565566 15.4886Z" fill="#FEFEFE"/>
<path d="M1.4826 15.2507C1.5496 15.7732 1.589 16.2943 1.67026 16.8167L1.65485 16.8241C1.61602 16.7524 1.62031 16.6546 1.60118 16.5744C1.56803 16.4353 1.5601 16.2916 1.54739 16.1494L1.52581 16.1319C1.28546 16.1116 0.895052 16.0803 0.668927 16.1623C0.637534 16.324 0.748839 16.5029 0.719245 16.6675C0.717038 16.6798 0.714095 16.6919 0.71152 16.704C0.632139 16.3062 0.599029 15.8924 0.565552 15.4885C0.664471 15.6485 0.600991 15.8795 0.65977 16.0565L0.707105 16.0409L0.679064 16.043C0.745855 15.9762 1.34097 15.9659 1.47381 15.9683C1.48481 15.9685 1.49568 15.9709 1.5066 15.9722C1.51228 15.721 1.445 15.5078 1.4826 15.2507Z" fill="#FEBDA3"/>
<path d="M14.7888 1.20357C14.8283 1.17773 14.8535 1.17626 14.8987 1.1706C15.0476 1.15205 15.2846 1.08217 15.4151 1.00635L15.435 1.03349C15.3707 1.08567 15.2511 1.13076 15.2024 1.18867C15.2713 1.2137 15.3579 1.20577 15.4312 1.20764C15.2639 1.28749 15.0619 1.26022 14.8874 1.33494L14.8563 1.34805C14.7969 1.37356 14.7487 1.39859 14.6985 1.43909C14.28 1.43644 13.866 1.44613 13.4484 1.47352C13.8632 1.30242 14.3615 1.3535 14.7888 1.20357Z" fill="#FECEB3"/>
<path d="M14.6751 2.42273C15.2162 2.4712 15.7579 2.50225 16.2951 2.58674C17.1343 2.71877 17.9296 2.97199 18.7273 3.2552C20.0188 3.73397 21.2375 4.49261 22.2675 5.40196C22.6877 5.77292 23.1054 6.16887 23.4726 6.59237C23.571 6.70588 23.7446 7.02018 23.8661 7.0702C23.9465 7.147 24.0061 7.23881 24.083 7.31614L24.0651 7.33608C24.1478 7.47921 24.4129 7.91232 24.5206 7.99794C24.5897 8.08133 24.657 8.18817 24.6936 8.2904C24.6985 8.29549 24.7037 8.30029 24.7082 8.3057C24.8021 8.41758 24.8774 8.75 25.0245 8.77031C25.1126 8.78243 25.2447 8.68675 25.3138 8.63694C25.4394 8.86322 25.5587 9.10342 25.6526 9.34463L25.6387 9.37658L25.2875 9.49843C25.4491 9.69398 25.4859 10.1569 25.6229 10.4075C25.6578 10.5407 25.7946 11.1332 25.865 11.1988C25.9717 11.4608 25.9834 11.7757 26.0505 12.0509C26.0554 12.1414 26.1415 12.8428 26.1776 12.8766C26.1802 12.879 26.1835 12.8804 26.1864 12.8822C26.1962 13.0724 26.2074 13.6792 26.2706 13.8208L26.3295 13.8401L26.2696 13.8513C26.2071 13.9767 26.2604 14.5146 26.2426 14.7015C26.2187 15.0163 26.2089 15.3338 26.1776 15.6478C26.1583 15.9384 26.117 16.2234 26.0628 16.5095C26.0026 16.7928 25.951 17.0945 25.8584 17.3687C25.799 17.64 25.7441 17.9215 25.644 18.181C25.5376 18.4708 25.4147 18.7576 25.3147 19.0491C25.4206 19.1062 25.5213 19.1571 25.6353 19.1968C25.6546 19.2452 25.6204 19.2938 25.5999 19.3408C25.5422 19.4735 25.3684 19.9079 25.2686 19.9784C25.1547 20.2438 25.0082 20.5767 24.8212 20.7952C24.6582 21.0262 24.4745 21.2564 24.3282 21.4974C24.2282 21.4299 24.1281 21.3655 24.0237 21.305C23.8471 21.5182 23.6824 21.7559 23.4945 21.9579C23.3052 22.1463 23.1112 22.377 22.9451 22.5864C22.7326 22.7865 22.5168 22.9842 22.3133 23.1933C22.1573 23.3166 21.8166 23.5422 21.7181 23.697C21.5892 23.8206 21.0787 24.1478 21.0255 24.2471C21.0603 24.3761 21.0917 24.5075 21.1324 24.6348C21.0857 24.7073 20.6228 24.9921 20.5367 25.0219C20.4745 25.1482 19.9292 25.4092 19.7701 25.4681C19.7425 25.4783 19.7354 25.4789 19.7099 25.4838L19.6845 25.4684C19.5832 25.5724 19.1204 25.748 18.9606 25.8239C18.7743 25.9042 18.3259 26.114 18.1406 26.109L18.1311 26.1005C17.9256 26.2001 17.5982 26.2891 17.3718 26.3299C17.114 26.4274 16.6052 26.5362 16.3321 26.545C16.1294 26.5541 15.8909 26.5768 15.6941 26.626L15.6464 26.2361L15.667 26.2012C15.0948 26.1955 14.5243 26.2584 13.9508 26.2363C13.785 26.2099 13.6049 26.2167 13.4367 26.2058C13.1142 26.1848 12.7894 26.1555 12.4696 26.1085C11.9405 26.0306 11.2018 25.8673 10.6926 25.7009C10.4866 25.6336 10.2877 25.5439 10.0844 25.469C9.79059 25.3606 9.50156 25.259 9.2167 25.128C8.90853 24.9863 8.61921 24.8086 8.31289 24.6645C7.85868 24.4646 7.32815 24.0444 6.9115 23.7612C6.79316 23.6464 6.65394 23.5423 6.52951 23.433C6.24866 23.1862 5.96919 22.9338 5.70394 22.6703C5.31014 22.2791 4.973 21.8284 4.63725 21.3885C4.44039 21.0793 4.21859 20.7879 4.02783 20.4737C3.63464 19.7267 3.3051 19.0597 3.02048 18.26C2.86229 17.711 2.70737 17.1664 2.57988 16.6092C2.58352 16.316 2.48554 15.9099 2.45087 15.6081C2.4257 15.3892 2.43849 15.0012 2.37305 14.8118C2.40309 14.5665 2.3708 14.2992 2.37648 14.0505C2.38453 13.6987 2.43097 13.3421 2.45893 12.9912C2.51166 12.7625 2.53189 12.5204 2.57534 12.2889C2.7059 11.5933 2.85755 10.8809 3.09377 10.213C3.29492 9.71636 3.48189 9.23601 3.71652 8.75244C3.87544 8.50504 4.00559 8.23717 4.15315 7.9826C4.29144 7.74403 4.44697 7.51336 4.59698 7.28191C4.78236 7.08636 4.93989 6.85194 5.10711 6.64007C5.29854 6.39751 5.51342 6.16411 5.73117 5.94459C7.4809 4.18059 9.80249 3.03845 12.2434 2.59207C12.5992 2.52704 12.9626 2.4992 13.323 2.47344C13.4906 2.46147 13.6658 2.46266 13.8312 2.43482C13.8368 2.43388 13.8425 2.43278 13.8481 2.43177C14.1153 2.46152 14.405 2.42253 14.6751 2.42273Z" fill="#E35709"/>
<path d="M15.667 26.2013L15.6874 26.2003C15.8479 26.1915 16.2037 26.0872 16.3361 26.1623L16.3498 26.2162C16.3566 26.3313 16.3541 26.4308 16.3322 26.5451C16.1295 26.5542 15.8909 26.5769 15.6941 26.6261L15.6464 26.2362L15.667 26.2013Z" fill="#050321"/>
<path d="M20.4005 24.6233C20.4627 24.5234 20.8816 24.2976 21.0046 24.2357L21.0256 24.2471C21.0604 24.3761 21.0917 24.5075 21.1324 24.6348C21.0857 24.7073 20.6229 24.9921 20.5367 25.0219C20.4986 24.8844 20.4608 24.7531 20.4005 24.6233Z" fill="#050321"/>
<path d="M17.1414 25.994L17.1456 25.9727C17.452 25.9189 17.7465 25.823 18.0469 25.746C18.0751 25.8639 18.1063 25.9819 18.1311 26.1006C17.9256 26.2002 17.5982 26.2892 17.3718 26.33C17.341 26.2343 17.3383 26.06 17.2569 25.9968C17.2296 25.9755 17.1751 25.9909 17.1414 25.994Z" fill="#050321"/>
<path d="M24.0237 21.305C24.078 21.144 24.3846 20.7416 24.5006 20.5896C24.598 20.6712 24.7017 20.7483 24.8212 20.7952C24.6582 21.0262 24.4745 21.2564 24.3282 21.4974C24.2282 21.4299 24.1282 21.3655 24.0237 21.305Z" fill="#050321"/>
<path d="M18.818 25.4607C18.834 25.4263 19.4945 25.143 19.5941 25.0818L19.6845 25.4685C19.5832 25.5725 19.1205 25.7481 18.9606 25.824C18.918 25.6997 18.8744 25.5795 18.818 25.4607Z" fill="#050321"/>
<path d="M18.818 25.4607C18.8744 25.5795 18.918 25.6997 18.9606 25.8239C18.7743 25.9042 18.3259 26.114 18.1407 26.109L18.1311 26.1005C18.1062 25.9819 18.0751 25.8639 18.0469 25.7459C18.2959 25.6376 18.5798 25.5937 18.818 25.4607Z" fill="#FFD57A"/>
<path d="M25.3147 19.0491C25.4206 19.1062 25.5213 19.1571 25.6354 19.1968C25.6546 19.2452 25.6204 19.2938 25.6 19.3408C25.5422 19.4735 25.3684 19.9079 25.2687 19.9784L24.9421 19.8352L24.932 19.8272C24.9294 19.7566 25.2535 19.1515 25.3147 19.0491Z" fill="#050321"/>
<path d="M24.6936 8.29041C24.6985 8.29549 24.7037 8.3003 24.7082 8.30571C24.8021 8.41759 24.8774 8.75 25.0245 8.77031C25.1126 8.78244 25.2447 8.68676 25.3139 8.63695C25.4394 8.86323 25.5587 9.10342 25.6526 9.34464L25.6387 9.37658L25.2875 9.49843L25.2532 9.4811C25.1886 9.38285 25.1667 9.2562 25.1169 9.1486C25.0434 8.98979 24.6848 8.41299 24.6936 8.29041Z" fill="#050321"/>
<path d="M24.9421 19.8352L25.2686 19.9784C25.1547 20.2437 25.0082 20.5767 24.8212 20.7951C24.7017 20.7483 24.598 20.6711 24.5006 20.5896C24.6123 20.4125 24.8033 19.9494 24.9421 19.8352Z" fill="#FFD57A"/>
<path d="M17.1414 25.994C17.1751 25.9909 17.2296 25.9755 17.2569 25.9967C17.3383 26.0599 17.341 26.2343 17.3718 26.33C17.1141 26.4274 16.6052 26.5363 16.3322 26.545C16.3541 26.4308 16.3566 26.3312 16.3498 26.2162L16.3549 26.17C16.4317 26.0808 16.9836 26.0483 17.1414 25.994Z" fill="#FFD57A"/>
<path d="M19.5941 25.0817C19.8545 24.9478 20.1795 24.8163 20.4004 24.6233C20.4608 24.753 20.4986 24.8843 20.5367 25.0219C20.4745 25.1482 19.9292 25.4092 19.7701 25.4681C19.7425 25.4783 19.7354 25.4788 19.7099 25.4838L19.6845 25.4684L19.5941 25.0817Z" fill="#FFD57A"/>
<path d="M11.2347 8.00183L11.273 8.02035C11.2466 8.06996 11.2238 8.12417 11.2136 8.17976C11.1963 8.27426 11.2271 8.36669 11.2805 8.44434C11.519 8.7912 12.5257 8.87244 12.9219 8.81684C13.0579 8.79776 13.284 8.65694 13.4044 8.68828C13.4317 8.6954 13.4483 8.71917 13.4572 8.74526C13.4855 8.82816 13.4604 8.95363 13.4156 9.02631C13.3636 9.06058 13.3527 9.06087 13.2899 9.06376C13.2642 9.05733 13.2385 9.05159 13.2127 9.04548C12.8003 8.94756 12.0758 9.25312 11.4604 9.11056C11.2554 9.06306 11.0623 8.96718 10.9523 8.78087C10.8803 8.65906 10.8497 8.50506 10.8881 8.36734C10.9397 8.18237 11.0781 8.09202 11.2347 8.00183Z" fill="#050321"/>
<path d="M14.1276 15.4851C14.42 15.4734 14.7229 15.5434 14.9666 15.7076C15.2088 15.8708 15.3837 16.1237 15.4315 16.4127C15.5333 17.0273 15.0348 17.1061 14.7542 17.5154C14.2405 18.2646 15.0388 18.5633 15.1486 19.2065C15.2403 19.7431 14.8087 20.1583 14.5197 20.5544C14.5587 20.0246 14.7228 19.836 14.5494 19.2806C14.5379 19.4823 14.5187 19.6731 14.4635 19.8682C14.3636 20.221 14.167 20.5238 14.2317 20.9021C14.0795 20.8447 13.8885 20.7891 13.7937 20.647C13.764 20.6027 13.7515 20.5533 13.7171 20.5113L13.6838 20.5276C13.6449 20.6162 13.6336 20.7107 13.6255 20.8065C13.6023 21.0822 13.7803 21.2608 13.9471 21.4546C13.4495 21.3515 12.9714 21.1915 12.456 21.2643C12.2065 21.2995 11.6893 21.5725 11.5586 21.5576C11.4608 21.5464 11.4108 21.4817 11.3461 21.4149C11.2841 21.4194 11.2208 21.4327 11.1593 21.4424C11.0504 21.4638 10.649 21.6103 10.6009 21.6012C10.5743 21.5961 10.555 21.573 10.5428 21.55C10.4929 21.4554 10.5421 21.2454 10.5682 21.1451C10.4678 21.2234 10.4051 21.2925 10.3298 21.3958C10.3017 21.4344 10.2978 21.4448 10.2539 21.4662C10.1986 21.4137 10.1645 21.3206 10.1595 21.2447C10.151 21.1127 10.2372 21.0167 10.3145 20.921C10.1862 20.9493 10.0686 20.9714 9.95075 21.0314L9.91687 21.0489C9.90195 21.025 9.89165 21.0182 9.89418 20.988C9.90608 20.846 10.1203 20.7056 10.2252 20.6255C10.245 20.5787 10.1728 20.5755 10.1522 20.5218C10.1659 20.5026 10.1658 20.5014 10.1854 20.4818C10.6992 19.968 10.9989 20.4982 11.5237 20.4855C11.8075 20.4787 12.0631 20.3161 12.2504 20.1127C12.3829 19.9688 12.4735 19.8021 12.5682 19.6326C12.7532 19.302 12.8828 19.0699 12.8646 18.683C12.8595 18.5757 12.8614 18.4315 12.7774 18.3544C12.6766 18.5074 12.5043 18.6617 12.3182 18.7021C12.2685 18.7129 12.2446 18.7081 12.2033 18.6809C12.3844 18.3771 12.4036 18.2882 12.3411 17.9412C12.2739 18.0111 12.2001 18.0934 12.1107 18.1349C11.9875 18.1921 11.8534 18.1476 11.7322 18.1067C11.7325 18.0674 11.7612 18.0731 11.7924 18.0585C11.9195 17.999 11.9748 17.9616 12.0517 17.8413L12.0656 17.8191C12.1254 17.173 11.87 16.9194 12.3897 16.324C12.8337 15.8154 13.4595 15.5333 14.1276 15.4851Z" fill="#050321"/>
<path d="M15.3862 6.27441C15.3983 6.28084 15.4063 6.28451 15.4177 6.2944C15.5258 6.38788 15.5305 6.59869 15.5418 6.73153C15.8293 6.72608 15.9951 6.70304 16.2016 6.49288L16.0674 6.89513C16.3089 6.82375 16.5359 6.7717 16.7904 6.79494C16.873 6.80247 16.9835 6.82229 17.0324 6.89733C17.0797 6.96961 17.0749 7.06053 17.0623 7.14193C17.029 7.35762 16.9411 7.54748 16.7647 7.67881C17.0659 8.08147 17.1237 8.52565 17.1133 9.01447C17.0609 8.9465 17.0074 8.87943 16.9527 8.81326C16.9688 9.1655 16.8675 9.60471 16.9927 9.9379C17.044 10.0746 17.1317 10.1403 17.2614 10.1959C17.2679 10.1987 17.2746 10.2013 17.2812 10.204C17.2761 10.2336 17.2827 10.2458 17.2543 10.2629C17.1272 10.34 16.8679 10.2771 16.7316 10.2476C17.0607 10.7061 16.9086 11.21 16.5748 11.6121C16.4095 11.8113 16.2061 11.9834 16.0747 12.2088C15.9463 12.4292 15.886 12.6839 15.8757 12.9375C15.8602 13.3199 15.9819 13.6873 16.2455 13.9684C16.3682 14.0993 16.5123 14.2074 16.6662 14.2993C17.007 14.5029 17.3983 14.6452 17.7571 14.8166C18.0869 14.9742 18.4111 15.1727 18.7543 15.2975C18.8235 15.3232 18.8945 15.343 18.9671 15.357C19.0397 15.3709 19.1129 15.3787 19.1869 15.3805C19.2118 15.3809 19.2368 15.3807 19.2618 15.3799C19.2868 15.3791 19.3118 15.3777 19.3367 15.3757C19.3616 15.3737 19.3864 15.371 19.4112 15.3677C19.436 15.3645 19.4607 15.3606 19.4852 15.3561C19.5098 15.3517 19.5343 15.3466 19.5586 15.3409C19.583 15.3352 19.6071 15.3289 19.6311 15.322C19.6552 15.3151 19.679 15.3077 19.7027 15.2996C19.7263 15.2916 19.7497 15.2829 19.7729 15.2737C19.7962 15.2645 19.8191 15.2547 19.8418 15.2443C19.8646 15.234 19.887 15.2231 19.9092 15.2116C19.9314 15.2001 19.9533 15.1881 19.9749 15.1756C19.9965 15.163 20.0177 15.15 20.0387 15.1364C20.0596 15.1228 20.0802 15.1086 20.1004 15.094C20.1206 15.0794 20.1405 15.0643 20.1599 15.0487C20.1794 15.0331 20.1985 15.017 20.2172 15.0005C20.2359 14.984 20.2541 14.967 20.2719 14.9495C20.5093 14.7151 20.645 14.4187 20.6422 14.083C20.635 13.2502 19.7379 12.889 19.1336 12.5117C18.8758 12.3507 18.6327 12.1696 18.4143 11.9583C18.3782 11.923 18.343 11.8869 18.3087 11.8499C18.2744 11.8129 18.241 11.7751 18.2086 11.7365C18.1762 11.6979 18.1447 11.6585 18.1142 11.6183C18.0838 11.5781 18.0543 11.5372 18.0258 11.4956C17.9974 11.454 17.97 11.4117 17.9436 11.3688C17.9172 11.3258 17.8919 11.2823 17.8676 11.2381C17.8434 11.1939 17.8203 11.1492 17.7983 11.1038C17.7762 11.0585 17.7554 11.0127 17.7356 10.9664C17.7159 10.92 17.6973 10.8732 17.6798 10.826C17.6624 10.7787 17.6461 10.7311 17.631 10.683C17.6159 10.635 17.602 10.5866 17.5893 10.5379C17.5766 10.4891 17.5651 10.4401 17.5548 10.3908C17.5446 10.3415 17.5355 10.292 17.5277 10.2423C17.5198 10.1925 17.5132 10.1426 17.5078 10.0926C17.5025 10.0425 17.4983 9.99238 17.4954 9.94213C17.4925 9.89185 17.4909 9.84155 17.4905 9.79122C17.4873 9.27807 17.5848 8.78664 17.9619 8.41328C17.9796 8.39562 17.9978 8.3784 18.0164 8.36164C18.035 8.34487 18.054 8.32859 18.0734 8.3128C18.0929 8.29698 18.1127 8.28166 18.1329 8.26685C18.1531 8.25204 18.1737 8.23774 18.1946 8.22395C18.2155 8.21017 18.2367 8.1969 18.2584 8.18415C18.2799 8.17143 18.3018 8.15926 18.324 8.14765C18.3463 8.13601 18.3687 8.12492 18.3915 8.1144C18.4142 8.1039 18.4373 8.09397 18.4605 8.08461C18.4838 8.07525 18.5073 8.06648 18.531 8.05832C18.5547 8.05012 18.5786 8.04253 18.6027 8.03553C18.6267 8.02855 18.651 8.02218 18.6754 8.0164C18.6998 8.01062 18.7244 8.00545 18.749 8.00089C18.7737 7.99633 18.7985 7.9924 18.8233 7.98909C18.8482 7.98578 18.8732 7.98309 18.8981 7.98103C18.9232 7.97897 18.9482 7.97753 18.9733 7.97672C18.9983 7.9759 19.0234 7.97571 19.0485 7.97615C19.4147 7.98217 19.7397 8.13751 19.9905 8.39989C20.3962 8.8242 20.7438 9.40541 20.7324 10.0036C20.7661 9.98852 20.7996 9.9731 20.832 9.95552C21.0398 9.84283 21.0808 9.66307 21.1461 9.45266C21.1878 9.61968 21.2416 9.79863 21.2313 9.97249C21.2213 10.144 21.1623 10.2266 21.0376 10.3386C21.2904 10.4977 21.4674 10.6285 21.6318 10.8816C21.3223 10.8951 20.8068 10.9229 20.5235 10.8164C20.5153 10.8204 20.507 10.8244 20.4988 10.8285C20.4423 10.8568 20.3852 10.8884 20.325 10.9086C20.208 10.948 19.9207 10.9689 19.8163 10.9013C19.778 10.8765 19.7789 10.8523 19.7722 10.8118C19.7997 10.7793 19.8318 10.744 19.8488 10.7048C19.8999 10.5871 19.818 10.4225 19.7667 10.314L19.7543 10.2881C19.694 10.3424 19.6214 10.411 19.5411 10.4325C19.4321 10.4616 19.2723 10.4331 19.1793 10.3686C19.1261 10.3317 19.1147 10.2955 19.1067 10.2339L19.1369 10.2225C19.1952 10.2359 19.2364 10.2459 19.2963 10.2316C19.416 10.1304 19.4611 9.87994 19.5072 9.73054C19.3398 9.63999 19.2376 9.54818 19.1199 9.40057C19.2766 9.47419 19.393 9.51122 19.5659 9.44729C19.5807 9.44172 19.5951 9.43543 19.6092 9.4284C19.6233 9.42138 19.637 9.41366 19.6503 9.40525C19.6636 9.39686 19.6764 9.38781 19.6888 9.3781C19.7012 9.36841 19.713 9.35812 19.7244 9.34721C19.7357 9.33633 19.7465 9.3249 19.7567 9.3129C19.7668 9.30094 19.7764 9.28848 19.7853 9.27554C19.7942 9.2626 19.8024 9.24924 19.81 9.23545C19.8175 9.2217 19.8244 9.20759 19.8305 9.19313C19.8792 9.07983 19.8786 8.95627 19.8313 8.84264C19.7645 8.68241 19.6164 8.56378 19.4581 8.4998C19.2278 8.40677 18.8487 8.40396 18.6202 8.5055C18.357 8.62234 18.1672 8.82811 18.065 9.09517C17.9316 9.44375 17.9389 9.88198 18.0059 10.2438C18.3884 12.3094 20.4012 12.1427 20.9533 13.4085C21.1287 13.8105 21.126 14.3081 20.9641 14.7139C20.9537 14.7402 20.9427 14.7662 20.931 14.792C20.9193 14.8178 20.907 14.8433 20.8941 14.8685C20.8811 14.8936 20.8676 14.9184 20.8534 14.9429C20.8392 14.9674 20.8244 14.9916 20.809 15.0153C20.7935 15.0391 20.7776 15.0624 20.761 15.0854C20.7444 15.1084 20.7273 15.1309 20.7096 15.153C20.6919 15.1751 20.6736 15.1968 20.6548 15.218C20.636 15.2392 20.6167 15.2599 20.5969 15.2802C20.577 15.3004 20.5567 15.3202 20.5359 15.3394C20.5151 15.3587 20.4938 15.3774 20.472 15.3955C20.4503 15.4137 20.4281 15.4313 20.4054 15.4484C20.3828 15.4655 20.3597 15.482 20.3362 15.4979C20.3128 15.5138 20.2889 15.5291 20.2647 15.5439C20.2404 15.5586 20.2158 15.5727 20.1909 15.5863C20.1659 15.5998 20.1407 15.6127 20.1151 15.625C20.0895 15.6372 20.0636 15.6488 20.0374 15.6598C19.3627 15.9479 18.77 15.8147 18.1156 15.557C18.1102 16.4103 18.3687 16.8891 19.0413 17.4112C19.2427 17.5675 19.4615 17.7153 19.618 17.9191C19.735 18.0714 19.8051 18.2393 19.8793 18.415C19.681 18.3726 19.5146 18.2957 19.334 18.2056C19.3993 18.345 19.4687 18.4851 19.5561 18.6123C19.7686 18.9217 20.0249 19.0662 20.3935 19.1326C20.0249 19.3037 19.7475 19.3425 19.348 19.2262C19.5211 19.431 19.6683 19.6714 19.8556 19.8613C19.91 19.9164 19.9627 19.9674 20.0452 19.9654C20.083 19.9645 20.1155 19.9657 20.1529 19.9698L20.1499 20.0141C20.1282 20.0509 20.1094 20.0733 20.0683 20.0895C19.8571 20.1728 19.6264 20.1284 19.4247 20.0494C19.4396 20.1061 19.4561 20.1625 19.4741 20.2184C19.5534 20.4591 19.6448 20.5964 19.8734 20.7114L19.853 20.7638C19.8082 20.7988 19.7677 20.8082 19.7126 20.8158C19.5763 20.8345 19.3775 20.8173 19.2692 20.7238C19.2439 20.7019 19.2196 20.6772 19.1946 20.6547C19.1895 20.6647 19.1835 20.6744 19.1793 20.6849C19.1458 20.7675 19.1641 20.8701 19.2074 20.945C19.322 21.143 19.5306 21.2071 19.738 21.2571C19.2566 21.6262 18.762 21.3684 18.2322 21.489C18.0148 21.5385 17.809 21.6689 17.6135 21.7728L17.4102 21.8608C17.4025 21.8007 17.4018 21.7088 17.3679 21.6579C17.3261 21.595 17.0583 21.58 16.9704 21.5582C16.8515 21.6184 16.7815 21.6789 16.6979 21.7834C16.6972 21.6988 16.7173 21.5373 16.6765 21.4655L16.591 21.4919L16.5645 21.4708C16.5551 21.3414 16.6298 21.2565 16.6957 21.1517C16.5547 21.2208 16.4449 21.3041 16.3287 21.4076C16.3369 21.2849 16.3452 21.1667 16.375 21.047C16.3772 21.0386 16.3795 21.0302 16.3817 21.0217C16.3358 20.974 16.2885 21.0399 16.2262 21.0104C16.2743 20.8147 16.4597 20.7809 16.61 20.6869L16.6067 20.6572L16.4932 20.5836C16.5504 20.5276 16.6084 20.4684 16.6779 20.4277C17.0645 20.2015 17.3785 20.5663 17.7411 20.6407C17.832 20.6593 17.9289 20.6513 18.005 20.5946C18.1258 20.5046 18.1687 20.3331 18.1873 20.192C18.2673 19.5874 18.1141 18.9027 17.7452 18.417C17.7424 18.6772 17.7517 18.9328 17.6734 19.1839C17.5888 19.0253 17.4633 18.8851 17.3662 18.733C17.263 18.5713 17.1914 18.3879 17.1156 18.2123C17.0452 18.4518 16.9823 18.6842 16.9677 18.9342C16.748 18.6352 16.6201 18.3161 16.4842 17.9743C16.4082 18.1009 16.376 18.2119 16.3401 18.3532C16.259 18.3365 16.1944 18.2103 16.1541 18.1406C15.7939 17.5177 15.8336 17.032 15.6586 16.3755C15.6372 16.292 15.6096 16.2105 15.5758 16.1311C15.542 16.0517 15.5024 15.9753 15.457 15.9019C15.1451 15.4038 14.6249 15.1506 14.0455 15.1215C13.8504 15.1118 13.6065 15.1275 13.4236 15.0545C13.2969 15.0039 13.1914 14.8821 13.0935 14.7902L13.0736 15.1389C12.9976 15.1043 12.9122 15.0705 12.8493 15.0149C12.7274 14.9068 12.7232 14.7629 12.7139 14.6125C12.7097 14.6156 12.7053 14.6186 12.7011 14.6217L12.68 14.6374C12.5002 14.7688 12.3674 14.9466 12.1989 15.0903C11.9424 15.3091 11.5607 15.4494 11.251 15.5816C11.2842 15.4617 11.3088 15.3415 11.3325 15.2194L11.3119 15.2338C10.8879 15.5262 10.8552 15.7264 10.3065 15.838C10.3328 15.7916 10.3566 15.7456 10.3738 15.6949C10.3995 15.619 10.4422 15.5147 10.4035 15.4404C10.3221 15.4548 10.2518 15.5635 10.1932 15.6229C10.0681 15.7496 9.89511 15.8328 9.71529 15.8346C9.65075 15.7957 9.68562 15.7496 9.6552 15.6842C9.47024 15.8585 9.41461 16.1349 9.16334 16.2436C8.97176 16.3264 8.70962 16.3007 8.51881 16.2221C8.43571 16.1879 8.35568 16.136 8.32318 16.0486C8.32024 16.0407 8.31856 16.0324 8.31627 16.0243L8.2812 16.0329C8.19606 16.127 8.19573 16.2739 8.18155 16.3942L8.15886 16.4034C8.09558 16.3931 8.0415 16.3783 7.98571 16.3457C7.79817 16.2362 7.68347 16.0667 7.62408 15.8626C7.64599 15.7704 7.67763 15.6799 7.70624 15.5895C7.64149 15.6316 7.56326 15.6952 7.49025 15.7186C7.44664 15.7327 7.43703 15.7238 7.39914 15.7045C7.37008 15.6468 7.36113 15.5818 7.36967 15.5174C7.38757 15.383 7.5783 15.3206 7.67571 15.2448L7.67812 15.2225C7.59461 15.1623 7.47456 15.1826 7.37564 15.1891C7.52974 14.7559 7.70125 14.6821 8.07997 14.459C8.52065 14.5023 8.81602 14.7493 9.19355 14.944C9.90716 14.716 10.4514 14.1557 10.8978 13.5799C10.5102 13.3017 10.3086 13.6243 9.72788 13.0786C9.8539 13.0923 9.9704 13.0964 10.0951 13.0697L10.1046 13.0474C10.0419 12.9924 9.9668 12.9639 9.89204 12.929C9.63983 12.811 9.49002 12.7035 9.31528 12.4834C9.38428 12.4938 9.4563 12.5047 9.52612 12.5061C9.66064 12.509 9.73777 12.4395 9.82909 12.3505C9.71856 12.3347 9.5999 12.3257 9.49297 12.2945C9.15852 12.197 8.96591 11.9477 8.81038 11.6546C8.84235 11.6707 8.8748 11.6858 8.90775 11.6999C9.05952 11.7639 9.20831 11.7955 9.36413 11.7251C9.41727 11.7011 9.4682 11.6763 9.49027 11.6219L9.45961 11.6238L9.48013 11.6124C9.01958 11.3609 8.6533 11.1366 8.47773 10.622C8.63936 10.7318 8.80413 10.8091 8.98492 10.8826C8.89095 10.4131 8.68375 10.4119 8.42051 10.0847C8.34301 9.98832 8.29085 9.86395 8.2355 9.75398C8.37301 9.83416 8.51697 9.89484 8.66866 9.94262L8.59799 9.55632C8.33634 9.35706 8.15346 9.26313 7.98391 8.96844C8.09121 8.97031 8.19896 8.96628 8.30626 8.96441C8.26432 8.79059 8.21932 8.6735 8.29882 8.50481C8.13278 8.37629 8.03186 8.26469 7.92521 8.08395L8.00018 8.11159C8.25373 8.20511 8.45595 8.07862 8.68837 7.98697C8.62194 7.88954 8.5525 7.82198 8.46081 7.74918C8.51092 7.71312 8.56136 7.67555 8.61418 7.64352C8.77515 7.54585 8.96788 7.49811 9.15378 7.5441C9.3712 7.5979 9.5347 7.76289 9.61564 7.96728C9.72735 8.24919 9.61838 8.53 9.6402 8.82107C9.69763 9.58623 10.2085 10.4513 10.602 11.0989C10.6623 10.9816 10.7337 10.8763 10.8246 10.7808C11.1827 10.4047 11.6222 10.3201 12.1216 10.3081C12.3641 10.0753 12.5569 9.94148 12.8674 9.80713C12.7857 9.77633 12.703 9.74287 12.6253 9.70319C12.5264 9.65265 12.422 9.6008 12.3853 9.49096C12.4021 9.46243 12.4051 9.4503 12.4343 9.43186C12.5772 9.34151 13.2708 9.3359 13.4481 9.37289C13.5619 9.4888 13.5481 9.66701 13.5647 9.81991C13.6046 9.79603 13.6436 9.77112 13.6805 9.74275C13.8536 9.60967 13.9693 9.42446 13.9923 9.20607C14.0135 9.00466 13.9327 8.46647 13.8044 8.32285C13.4777 7.9573 13.0821 8.35944 12.7126 8.32517C12.6447 8.31886 12.5724 8.29094 12.5346 8.2312C12.4631 8.11794 12.5322 7.94155 12.5619 7.82308C12.5002 7.76456 12.3876 7.67897 12.3694 7.59485C12.3627 7.56384 12.3765 7.55598 12.3921 7.53136C12.4487 7.50532 13.1399 7.1998 13.1481 7.19907C13.1411 7.22747 13.1387 7.23647 13.1451 7.26593C13.2998 7.17583 13.3098 7.04669 13.4023 6.91044C13.615 6.59715 14.1144 6.7533 14.431 6.69417C14.6489 6.65347 14.7916 6.55222 14.9133 6.37132L15.0027 6.55197C15.1484 6.47847 15.2646 6.38129 15.3862 6.27441Z" fill="#050321"/>
<path d="M16.5066 6.96924C16.5267 6.97766 16.538 6.99402 16.5529 7.00957C16.553 7.0276 16.5546 7.03594 16.5468 7.05466C16.4956 7.17753 16.3261 7.25913 16.214 7.31826L16.1915 7.2973C16.1821 7.24712 16.1733 7.22653 16.1955 7.17838C16.2466 7.06728 16.3984 7.00408 16.5066 6.96924Z" fill="#E35709"/>
<path d="M10.8916 11.2848L10.9765 11.2878L10.9909 11.3407C10.9765 11.3616 10.9626 11.3811 10.9454 11.3999C10.8041 11.5544 10.6153 11.6164 10.4129 11.6216C10.382 11.6251 10.3625 11.6231 10.3322 11.6185L10.3301 11.5832C10.4873 11.4214 10.6806 11.3486 10.8916 11.2848Z" fill="#E35709"/>
<path d="M12.0984 14.5156L12.1288 14.5317C12.1073 14.6564 11.6428 15.1118 11.5283 15.2179L11.5136 15.2222L11.4958 15.2035C11.5018 15.1783 11.5039 15.1664 11.5115 15.1431C11.6139 14.8292 11.8079 14.6552 12.0984 14.5156Z" fill="#E35709"/>
<path d="M14.7333 9.56702C14.7978 9.62554 14.8117 9.74409 14.8313 9.82541C14.7796 10.0678 14.6564 10.2085 14.4934 10.3867C14.4763 10.4014 14.4882 10.3946 14.4531 10.3948L14.4373 10.3666C14.4715 10.0707 14.5654 9.81307 14.7333 9.56702Z" fill="#E35709"/>
<path d="M15.6119 7.51281C15.7306 7.50866 15.843 7.50992 15.9512 7.56502C16.2001 7.69179 16.2841 7.97839 16.3592 8.22571C16.0863 8.0617 15.8345 7.7434 15.6119 7.51281Z" fill="#E35709"/>
<path d="M12.8592 12.6479L12.8748 12.673C12.8031 13.1138 12.4303 13.3344 12.1262 13.6113L12.1168 13.6085C12.1004 13.5678 12.1127 13.5515 12.1253 13.5101C12.242 13.1297 12.5108 12.8364 12.8592 12.6479Z" fill="#E35709"/>
<path d="M14.985 9.09778C15.2012 9.19985 15.4209 9.39589 15.518 9.61448C15.6111 9.82419 15.5799 10.014 15.4984 10.2187C15.4816 10.2524 15.4637 10.2779 15.4395 10.3067C15.3759 10.2093 15.374 9.98881 15.3303 9.86607C15.2374 9.60508 15.0927 9.35482 14.985 9.09778Z" fill="#E35709"/>
<path d="M11.7026 10.9591C11.7181 10.9748 11.7196 10.9697 11.7184 10.9908C11.7147 11.0541 11.6639 11.1383 11.6373 11.196C11.4552 11.5897 11.1967 11.6831 10.9073 11.9563L10.8863 11.9763L10.8793 11.9678C10.8717 11.929 10.8778 11.9034 10.8901 11.8666C10.9623 11.6512 11.1353 11.3266 11.3116 11.1794C11.4263 11.0836 11.5686 11.0231 11.7026 10.9591Z" fill="#E35709"/>
<path d="M15.9242 10.3395C16.0187 10.4304 16.0967 10.6187 16.1219 10.7469C16.1902 11.0945 16.0252 11.3395 15.844 11.6155C15.8204 11.6467 15.7902 11.6756 15.7638 11.7048L15.7485 11.7021C15.7602 11.5944 15.7856 11.4891 15.797 11.3812C15.8339 11.0324 15.8531 10.6839 15.9242 10.3395Z" fill="#E35709"/>
<path d="M15.566 11.0615L15.5859 11.0995C15.5761 11.467 15.0415 11.9196 14.8286 12.2145L14.8063 12.2457L14.7926 12.243C14.7782 12.1975 14.7856 12.1776 14.7956 12.1312C14.9185 11.5654 15.0965 11.3699 15.566 11.0615Z" fill="#E35709"/>
<path d="M11.3732 12.1267L11.427 12.1234L11.4373 12.1458C11.3359 12.284 11.1665 12.4372 11.0235 12.5345C10.7917 12.6923 10.5642 12.6618 10.3049 12.615C10.2575 12.5984 10.2133 12.5813 10.168 12.5592C10.2339 12.5146 10.3253 12.4906 10.399 12.459C10.7293 12.3173 11.0116 12.1768 11.3732 12.1267Z" fill="#E35709"/>
<path d="M14.7432 11.1014L14.7676 11.1075L14.774 11.152C14.6341 11.5604 14.2538 11.8583 13.9847 12.1886C13.9634 12.1956 13.9756 12.1949 13.9486 12.1823C13.9675 12.0133 14.0049 11.8355 14.0682 11.6773C14.2024 11.3419 14.4306 11.2381 14.7432 11.1014Z" fill="#E35709"/>
<path d="M13.9389 12.5861C13.9622 12.6015 13.9508 12.5901 13.9649 12.6268C13.8273 13.0605 13.3905 13.3646 13.0915 13.6875L13.0784 13.6718C13.076 13.5422 13.1354 13.3759 13.1803 13.2542C13.322 12.87 13.5928 12.745 13.9389 12.5861Z" fill="#E35709"/>
<path d="M12.2114 12.424C12.2116 12.4357 12.2134 12.4474 12.2121 12.4591C12.1997 12.5664 12.0769 12.7355 12.0003 12.8097C11.731 13.0706 11.3785 13.1545 11.0141 13.1557L11.0121 13.1262C11.2397 12.8098 11.853 12.5672 12.2114 12.424Z" fill="#E35709"/>
<path d="M13.7806 10.8547L13.8012 10.8802C13.7807 11.4408 13.2988 11.8089 12.9382 12.185L12.9162 12.1513C13.028 11.503 13.2992 11.2689 13.7806 10.8547Z" fill="#E35709"/>
<path d="M12.823 10.6772L12.8265 10.683C12.8297 10.7625 12.7742 10.8565 12.7403 10.9283C12.5278 11.378 12.24 11.7499 11.9055 12.117C11.8724 12.0538 11.9067 11.9766 11.9223 11.9079C12.0625 11.2889 12.2814 11.0177 12.823 10.6772Z" fill="#E35709"/>
<path d="M15.634 8.3457C15.7668 8.38945 15.9036 8.48806 16.0031 8.58574C16.4199 8.99487 16.4407 9.60314 16.4381 10.1482C16.246 9.91513 16.1124 9.40258 15.9872 9.10789C15.8753 8.85114 15.7576 8.59708 15.634 8.3457Z" fill="#E35709"/>
</g>
<defs>
<linearGradient id="paint0_linear_28_7504" x1="24.4038" y1="24.2537" x2="16.2498" y2="16.3436" gradientUnits="userSpaceOnUse">
<stop stop-color="#0B0705"/>
<stop offset="1" stop-color="#2A1006"/>
</linearGradient>
<linearGradient id="paint1_linear_28_7504" x1="17.5961" y1="2.16912" x2="17.1068" y2="0.838369" gradientUnits="userSpaceOnUse">
<stop stop-color="#FF7D40"/>
<stop offset="1" stop-color="#FEB899"/>
</linearGradient>
<clipPath id="clip0_28_7504">
<rect width="28" height="28" fill="white" transform="translate(0.5 0.5)"/>
</clipPath>
</defs>
</svg>
