<svg width="16" height="16" viewBox="0 0 16 16" fill="none" xmlns="http://www.w3.org/2000/svg">
<path d="M6.38137 3.26933C6.72137 2.80067 7.23471 2.5 8.00004 2.5C8.76537 2.5 9.27937 2.8 9.61871 3.26933C9.97337 3.76 10.1667 4.478 10.1667 5.33333V6.16667H5.83337V5.33333C5.83337 4.478 6.02671 3.76 6.38137 3.26933ZM11.1667 6.16667V5.33333C11.1667 4.348 10.9467 3.39933 10.4287 2.68333C9.89537 1.94533 9.07537 1.5 8.00004 1.5C6.92471 1.5 6.10537 1.94533 5.57137 2.68333C5.05337 3.39933 4.83337 4.348 4.83337 5.33333V6.16667H4.44671C4.09004 6.16667 3.79337 6.16667 3.55004 6.18667C3.29671 6.20733 3.05937 6.252 2.83471 6.36667C2.48967 6.54245 2.20915 6.82296 2.03337 7.168C1.91871 7.39267 1.87337 7.63067 1.85337 7.884C1.83337 8.12667 1.83337 8.424 1.83337 8.78V11.8867C1.83337 12.2433 1.83337 12.54 1.85337 12.7833C1.87337 13.0367 1.91871 13.2747 2.03337 13.4993C2.20915 13.8444 2.48967 14.1249 2.83471 14.3007C3.05937 14.4153 3.29671 14.46 3.55004 14.4807C3.79337 14.5007 4.09004 14.5007 4.44671 14.5007H11.5534C11.91 14.5007 12.2067 14.5007 12.45 14.4807C12.7034 14.46 12.9407 14.4153 13.1654 14.3007C13.5104 14.1249 13.7909 13.8444 13.9667 13.4993C14.0814 13.2747 14.1267 13.0367 14.1467 12.7833C14.1667 12.5407 14.1667 12.2433 14.1667 11.8873V8.78C14.1667 8.424 14.1667 8.12667 14.1467 7.884C14.1267 7.63067 14.0814 7.39267 13.9667 7.168C13.7913 6.82317 13.5112 6.54267 13.1667 6.36667C12.9414 6.252 12.704 6.20733 12.4507 6.18667C12.2074 6.16667 11.9107 6.16667 11.554 6.16667H11.1667Z" fill="#D9D9D9"/>
</svg>
