<svg width="32" height="33" viewBox="0 0 32 33" fill="none" xmlns="http://www.w3.org/2000/svg">
<path d="M17.725 0.5C18.1954 0.5 18.6162 0.7928 18.7746 1.2312L19.9042 4.3624C20.3085 4.46267 20.6573 4.56507 20.9506 4.6696C21.2706 4.78373 21.6866 4.95973 22.1986 5.1976L24.829 3.8056C25.0436 3.69133 25.2895 3.64998 25.5297 3.68779C25.7698 3.7256 25.9911 3.84052 26.1602 4.0152L28.4738 6.4072C28.781 6.7256 28.8674 7.1912 28.6946 7.5976L27.461 10.4888C27.6648 10.8643 27.829 11.1864 27.9538 11.4552C28.0882 11.7464 28.2546 12.1517 28.453 12.6712L31.3282 13.9032C31.7602 14.0872 32.0274 14.5192 31.9986 14.9816L31.7874 18.3016C31.773 18.5173 31.6955 18.724 31.5647 18.8961C31.4339 19.0681 31.2554 19.198 31.0514 19.2696L28.3282 20.2376C28.2504 20.6131 28.1682 20.9363 28.0818 21.2072C27.942 21.6271 27.7829 22.0403 27.605 22.4456L28.973 25.4696C29.0703 25.6819 29.0968 25.9199 29.0483 26.1484C28.9999 26.3769 28.8793 26.5838 28.7042 26.7384L26.1026 29.0616C25.9316 29.2146 25.7178 29.3113 25.49 29.3388C25.2622 29.3663 25.0315 29.3231 24.829 29.2152L22.1474 27.7944C21.7283 28.0174 21.2954 28.2135 20.8514 28.3816L19.6802 28.82L18.6402 31.7C18.5624 31.9104 18.4232 32.0926 18.2406 32.223C18.058 32.3534 17.8405 32.4259 17.6162 32.4312L14.5762 32.5C14.3459 32.5053 14.1195 32.4395 13.928 32.3116C13.7364 32.1836 13.589 31.9996 13.5058 31.7848L12.2802 28.5416C11.8622 28.3984 11.4481 28.2437 11.0386 28.0776C10.7038 27.9327 10.374 27.7763 10.0498 27.6088L7.00982 28.908C6.80959 28.9939 6.58866 29.0195 6.3741 28.9817C6.15954 28.9439 5.96066 28.8443 5.80182 28.6952L3.55222 26.5848C3.38411 26.4288 3.26961 26.2236 3.22507 25.9986C3.18053 25.7736 3.20823 25.5403 3.30422 25.332L4.61142 22.484C4.43819 22.1464 4.27702 21.8027 4.12822 21.4536C3.9549 21.0261 3.79482 20.5934 3.64822 20.156L0.784222 19.284C0.551423 19.2136 0.348373 19.0684 0.206605 18.8708C0.064838 18.6732 -0.00771229 18.4343 0.00022174 18.1912L0.112222 15.1176C0.120542 14.9171 0.183329 14.7227 0.293835 14.5553C0.404341 14.3878 0.558388 14.2537 0.739422 14.1672L3.74422 12.724C3.88289 12.2141 4.00556 11.8152 4.11222 11.5272C4.26319 11.1404 4.43081 10.7603 4.61462 10.388L3.31222 7.636C3.21263 7.42717 3.18221 7.19203 3.22537 6.96472C3.26853 6.73742 3.38302 6.5298 3.55222 6.372L5.79862 4.2504C5.95589 4.10152 6.15294 4.00143 6.36591 3.96224C6.57889 3.92306 6.79867 3.94645 6.99862 4.0296L10.0354 5.284C10.3704 5.06107 10.6754 4.8776 10.9506 4.7336C11.2781 4.5608 11.7176 4.37627 12.269 4.18L13.325 1.2344C13.4039 1.01935 13.5468 0.833644 13.7345 0.702327C13.9221 0.57101 14.1456 0.500395 14.3746 0.5H17.725ZM16.0386 11.7304C13.3714 11.7304 11.2098 13.8664 11.2098 16.5032C11.2098 19.14 13.3714 21.2776 16.0386 21.2776C18.7058 21.2776 20.8658 19.14 20.8658 16.5032C20.8658 13.8664 18.7058 11.7304 16.0386 11.7304Z" fill="white"/>
</svg>
